<?xml version="1.0" encoding="utf-8" standalone="no"?>
<!DOCTYPE svg PUBLIC "-//W3C//DTD SVG 1.1//EN"
  "http://www.w3.org/Graphics/SVG/1.1/DTD/svg11.dtd">
<svg xmlns:xlink="http://www.w3.org/1999/xlink" width="504pt" height="504pt" viewBox="0 0 504 504" xmlns="http://www.w3.org/2000/svg" version="1.1">
 <metadata>
  <rdf:RDF xmlns:dc="http://purl.org/dc/elements/1.1/" xmlns:cc="http://creativecommons.org/ns#" xmlns:rdf="http://www.w3.org/1999/02/22-rdf-syntax-ns#">
   <cc:Work>
    <dc:type rdf:resource="http://purl.org/dc/dcmitype/StillImage"/>
    <dc:date>2023-09-27T01:34:52.867084</dc:date>
    <dc:format>image/svg+xml</dc:format>
    <dc:creator>
     <cc:Agent>
      <dc:title>Matplotlib v3.8.0, https://matplotlib.org/</dc:title>
     </cc:Agent>
    </dc:creator>
   </cc:Work>
  </rdf:RDF>
 </metadata>
 <defs>
  <style type="text/css">*{stroke-linejoin: round; stroke-linecap: butt}</style>
 </defs>
 <g id="figure_1">
  <g id="patch_1">
   <path d="M 0 504 
L 504 504 
L 504 0 
L 0 0 
z
" style="fill: #ffffff"/>
  </g>
  <g id="axes_1">
   <g id="patch_2">
    <path d="M 63 448.56 
L 453.6 448.56 
L 453.6 60.48 
L 63 60.48 
z
" style="fill: #ffffff"/>
   </g>
   <g id="PolyCollection_1">
    <path d="M 63 -163.412308 
L 63 56.36254 
L 63.300462 56.76872 
L 63.600923 57.174761 
L 63.901385 57.580663 
L 64.201846 57.986426 
L 64.502308 58.39205 
L 64.802769 58.797535 
L 65.103231 59.202881 
L 65.403692 59.608088 
L 65.704154 60.013156 
L 66.004615 60.418085 
L 66.305077 60.822876 
L 66.605538 61.227527 
L 66.906 61.632039 
L 67.206462 62.036413 
L 67.506923 62.440648 
L 67.807385 62.844743 
L 68.107846 63.2487 
L 68.408308 63.652518 
L 68.708769 64.056196 
L 69.009231 64.459736 
L 69.309692 64.863137 
L 69.610154 65.266399 
L 69.910615 65.669522 
L 70.211077 66.072506 
L 70.511538 66.475352 
L 70.812 66.878058 
L 71.112462 67.280625 
L 71.412923 67.683054 
L 71.713385 68.085343 
L 72.013846 68.487493 
L 72.314308 68.889505 
L 72.614769 69.291378 
L 72.915231 69.693111 
L 73.215692 70.094706 
L 73.516154 70.496162 
L 73.816615 70.897479 
L 74.117077 71.298656 
L 74.417538 71.699695 
L 74.718 72.100595 
L 75.018462 72.501357 
L 75.318923 72.901979 
L 75.619385 73.302462 
L 75.919846 73.702806 
L 76.220308 74.103011 
L 76.520769 74.503078 
L 76.821231 74.903005 
L 77.121692 75.302794 
L 77.422154 75.702443 
L 77.722615 76.101954 
L 78.023077 76.501326 
L 78.323538 76.900558 
L 78.624 77.299652 
L 78.924462 77.698607 
L 79.224923 78.097423 
L 79.525385 78.4961 
L 79.825846 78.894638 
L 80.126308 79.293037 
L 80.426769 79.691297 
L 80.727231 80.089419 
L 81.027692 80.487401 
L 81.328154 80.885244 
L 81.628615 81.282949 
L 81.929077 81.680514 
L 82.229538 82.077941 
L 82.53 82.475228 
L 82.830462 82.872377 
L 83.130923 83.269387 
L 83.431385 83.666257 
L 83.731846 84.062989 
L 84.032308 84.459582 
L 84.332769 84.856036 
L 84.633231 85.252351 
L 84.933692 85.648527 
L 85.234154 86.044564 
L 85.534615 86.440462 
L 85.835077 86.836222 
L 86.135538 87.231842 
L 86.436 87.627323 
L 86.736462 88.022666 
L 87.036923 88.417869 
L 87.337385 88.812934 
L 87.637846 89.20786 
L 87.938308 89.602646 
L 88.238769 89.997294 
L 88.539231 90.391803 
L 88.839692 90.786173 
L 89.140154 91.180403 
L 89.440615 91.574495 
L 89.741077 91.968449 
L 90.041538 92.362263 
L 90.342 92.755938 
L 90.642462 93.149474 
L 90.942923 93.542871 
L 91.243385 93.93613 
L 91.543846 94.329249 
L 91.844308 94.722229 
L 92.144769 95.115071 
L 92.445231 95.507774 
L 92.745692 95.900337 
L 93.046154 96.292762 
L 93.346615 96.685048 
L 93.647077 97.077195 
L 93.947538 97.469202 
L 94.248 97.861071 
L 94.548462 98.252801 
L 94.848923 98.644392 
L 95.149385 99.035845 
L 95.449846 99.427158 
L 95.750308 99.818332 
L 96.050769 100.209367 
L 96.351231 100.600264 
L 96.651692 100.991021 
L 96.952154 101.38164 
L 97.252615 101.772119 
L 97.553077 102.16246 
L 97.853538 102.552661 
L 98.154 102.942724 
L 98.454462 103.332648 
L 98.754923 103.722433 
L 99.055385 104.112079 
L 99.355846 104.501586 
L 99.656308 104.890954 
L 99.956769 105.280183 
L 100.257231 105.669273 
L 100.557692 106.058224 
L 100.858154 106.447036 
L 101.158615 106.83571 
L 101.459077 107.224244 
L 101.759538 107.61264 
L 102.06 108.000896 
L 102.360462 108.389014 
L 102.660923 108.776992 
L 102.961385 109.164832 
L 103.261846 109.552533 
L 103.562308 109.940095 
L 103.862769 110.327517 
L 104.163231 110.714801 
L 104.463692 111.101946 
L 104.764154 111.488952 
L 105.064615 111.87582 
L 105.365077 112.262548 
L 105.665538 112.649137 
L 105.966 113.035587 
L 106.266462 113.421899 
L 106.566923 113.808071 
L 106.867385 114.194104 
L 107.167846 114.579999 
L 107.468308 114.965755 
L 107.768769 115.351371 
L 108.069231 115.736849 
L 108.369692 116.122188 
L 108.670154 116.507388 
L 108.970615 116.892448 
L 109.271077 117.27737 
L 109.571538 117.662153 
L 109.872 118.046798 
L 110.172462 118.431303 
L 110.472923 118.815669 
L 110.773385 119.199896 
L 111.073846 119.583984 
L 111.374308 119.967934 
L 111.674769 120.351744 
L 111.975231 120.735416 
L 112.275692 121.118948 
L 112.576154 121.502342 
L 112.876615 121.885597 
L 113.177077 122.268712 
L 113.477538 122.651689 
L 113.778 123.034527 
L 114.078462 123.417226 
L 114.378923 123.799786 
L 114.679385 124.182207 
L 114.979846 124.564489 
L 115.280308 124.946632 
L 115.580769 125.328637 
L 115.881231 125.710502 
L 116.181692 126.092228 
L 116.482154 126.473816 
L 116.782615 126.855264 
L 117.083077 127.236574 
L 117.383538 127.617744 
L 117.684 127.998776 
L 117.984462 128.379669 
L 118.284923 128.760422 
L 118.585385 129.141037 
L 118.885846 129.521513 
L 119.186308 129.90185 
L 119.486769 130.282048 
L 119.787231 130.662107 
L 120.087692 131.042027 
L 120.388154 131.421808 
L 120.688615 131.801451 
L 120.989077 132.180954 
L 121.289538 132.560318 
L 121.59 132.939544 
L 121.890462 133.31863 
L 122.190923 133.697578 
L 122.491385 134.076386 
L 122.791846 134.455056 
L 123.092308 134.833587 
L 123.392769 135.211979 
L 123.693231 135.590232 
L 123.993692 135.968345 
L 124.294154 136.34632 
L 124.594615 136.724156 
L 124.895077 137.101854 
L 125.195538 137.479412 
L 125.496 137.856831 
L 125.796462 138.234111 
L 126.096923 138.611253 
L 126.397385 138.988255 
L 126.697846 139.365118 
L 126.998308 139.741843 
L 127.298769 140.118428 
L 127.599231 140.494875 
L 127.899692 140.871183 
L 128.200154 141.247352 
L 128.500615 141.623381 
L 128.801077 141.999272 
L 129.101538 142.375024 
L 129.402 142.750637 
L 129.702462 143.126111 
L 130.002923 143.501446 
L 130.303385 143.876643 
L 130.603846 144.2517 
L 130.904308 144.626618 
L 131.204769 145.001398 
L 131.505231 145.376038 
L 131.805692 145.750539 
L 132.106154 146.124902 
L 132.406615 146.499126 
L 132.707077 146.87321 
L 133.007538 147.247156 
L 133.308 147.620963 
L 133.608462 147.994631 
L 133.908923 148.36816 
L 134.209385 148.741549 
L 134.509846 149.114801 
L 134.810308 149.487913 
L 135.110769 149.860886 
L 135.411231 150.23372 
L 135.711692 150.606415 
L 136.012154 150.978972 
L 136.312615 151.351389 
L 136.613077 151.723667 
L 136.913538 152.095807 
L 137.214 152.467807 
L 137.514462 152.839669 
L 137.814923 153.211392 
L 138.115385 153.582976 
L 138.415846 153.95442 
L 138.716308 154.325726 
L 139.016769 154.696893 
L 139.317231 155.067921 
L 139.617692 155.43881 
L 139.918154 155.80956 
L 140.218615 156.180172 
L 140.519077 156.550644 
L 140.819538 156.920977 
L 141.12 157.291171 
L 141.420462 157.661227 
L 141.720923 158.031143 
L 142.021385 158.400921 
L 142.321846 158.770559 
L 142.622308 159.140059 
L 142.922769 159.50942 
L 143.223231 159.878642 
L 143.523692 160.247724 
L 143.824154 160.616668 
L 144.124615 160.985473 
L 144.425077 161.354139 
L 144.725538 161.722666 
L 145.026 162.091054 
L 145.326462 162.459304 
L 145.626923 162.827414 
L 145.927385 163.195385 
L 146.227846 163.563218 
L 146.528308 163.930911 
L 146.828769 164.298466 
L 147.129231 164.665881 
L 147.429692 165.033158 
L 147.730154 165.400295 
L 148.030615 165.767294 
L 148.331077 166.134154 
L 148.631538 166.500875 
L 148.932 166.867457 
L 149.232462 167.2339 
L 149.532923 167.600204 
L 149.833385 167.966369 
L 150.133846 168.332395 
L 150.434308 168.698282 
L 150.734769 169.064031 
L 151.035231 169.42964 
L 151.335692 169.79511 
L 151.636154 170.160442 
L 151.936615 170.525634 
L 152.237077 170.890688 
L 152.537538 171.255603 
L 152.838 171.620378 
L 153.138462 171.985015 
L 153.438923 172.349513 
L 153.739385 172.713872 
L 154.039846 173.078092 
L 154.340308 173.442173 
L 154.640769 173.806115 
L 154.941231 174.169918 
L 155.241692 174.533582 
L 155.542154 174.897107 
L 155.842615 175.260494 
L 156.143077 175.623741 
L 156.443538 175.98685 
L 156.744 176.349819 
L 157.044462 176.71265 
L 157.344923 177.075341 
L 157.645385 177.437894 
L 157.945846 177.800308 
L 158.246308 178.162582 
L 158.546769 178.524718 
L 158.847231 178.886715 
L 159.147692 179.248573 
L 159.448154 179.610292 
L 159.748615 179.971872 
L 160.049077 180.333313 
L 160.349538 180.694616 
L 160.65 181.055779 
L 160.950462 181.416803 
L 161.250923 181.777689 
L 161.551385 182.138435 
L 161.851846 182.499043 
L 162.152308 182.859511 
L 162.452769 183.219841 
L 162.753231 183.580032 
L 163.053692 183.940083 
L 163.354154 184.299996 
L 163.654615 184.65977 
L 163.955077 185.019405 
L 164.255538 185.378901 
L 164.556 185.738258 
L 164.856462 186.097476 
L 165.156923 186.456555 
L 165.457385 186.815496 
L 165.757846 187.174297 
L 166.058308 187.532959 
L 166.358769 187.891483 
L 166.659231 188.249867 
L 166.959692 188.608113 
L 167.260154 188.966219 
L 167.560615 189.324187 
L 167.861077 189.682016 
L 168.161538 190.039705 
L 168.462 190.397256 
L 168.762462 190.754668 
L 169.062923 191.111941 
L 169.363385 191.469075 
L 169.663846 191.82607 
L 169.964308 192.182926 
L 170.264769 192.539644 
L 170.565231 192.896222 
L 170.865692 193.252661 
L 171.166154 193.608962 
L 171.466615 193.965123 
L 171.767077 194.321146 
L 172.067538 194.677029 
L 172.368 195.032774 
L 172.668462 195.388379 
L 172.968923 195.743846 
L 173.269385 196.099174 
L 173.569846 196.454363 
L 173.870308 196.809413 
L 174.170769 197.164324 
L 174.471231 197.519096 
L 174.771692 197.873729 
L 175.072154 198.228223 
L 175.372615 198.582578 
L 175.673077 198.936795 
L 175.973538 199.290872 
L 176.274 199.64481 
L 176.574462 199.99861 
L 176.874923 200.35227 
L 177.175385 200.705792 
L 177.475846 201.059175 
L 177.776308 201.412418 
L 178.076769 201.765523 
L 178.377231 202.118489 
L 178.677692 202.471316 
L 178.978154 202.824004 
L 179.278615 203.176553 
L 179.579077 203.528963 
L 179.879538 203.881234 
L 180.18 204.233366 
L 180.480462 204.58536 
L 180.780923 204.937214 
L 181.081385 205.288929 
L 181.381846 205.640506 
L 181.682308 205.991943 
L 181.982769 206.343242 
L 182.283231 206.694401 
L 182.583692 207.045422 
L 182.884154 207.396304 
L 183.184615 207.747047 
L 183.485077 208.09765 
L 183.785538 208.448115 
L 184.086 208.798441 
L 184.386462 209.148628 
L 184.686923 209.498676 
L 184.987385 209.848586 
L 185.287846 210.198356 
L 185.588308 210.547987 
L 185.888769 210.897479 
L 186.189231 211.246833 
L 186.489692 211.596047 
L 186.790154 211.945123 
L 187.090615 212.294059 
L 187.391077 212.642857 
L 187.691538 212.991516 
L 187.992 213.340036 
L 188.292462 213.688416 
L 188.592923 214.036658 
L 188.893385 214.384761 
L 189.193846 214.732725 
L 189.494308 215.08055 
L 189.794769 215.428236 
L 190.095231 215.775784 
L 190.395692 216.123192 
L 190.696154 216.470461 
L 190.996615 216.817592 
L 191.297077 217.164583 
L 191.597538 217.511436 
L 191.898 217.858149 
L 192.198462 218.204724 
L 192.498923 218.551159 
L 192.799385 218.897456 
L 193.099846 219.243614 
L 193.400308 219.589633 
L 193.700769 219.935513 
L 194.001231 220.281254 
L 194.301692 220.626856 
L 194.602154 220.972319 
L 194.902615 221.317643 
L 195.203077 221.662828 
L 195.503538 222.007874 
L 195.804 222.352782 
L 196.104462 222.69755 
L 196.404923 223.04218 
L 196.705385 223.38667 
L 197.005846 223.731022 
L 197.306308 224.075234 
L 197.606769 224.419308 
L 197.907231 224.763243 
L 198.207692 225.107039 
L 198.508154 225.450695 
L 198.808615 225.794213 
L 199.109077 226.137592 
L 199.409538 226.480832 
L 199.71 226.823934 
L 200.010462 227.166896 
L 200.310923 227.509719 
L 200.611385 227.852403 
L 200.911846 228.194949 
L 201.212308 228.537355 
L 201.512769 228.879623 
L 201.813231 229.221751 
L 202.113692 229.563741 
L 202.414154 229.905591 
L 202.714615 230.247303 
L 203.015077 230.588876 
L 203.315538 230.93031 
L 203.616 231.271605 
L 203.916462 231.612761 
L 204.216923 231.953778 
L 204.517385 232.294656 
L 204.817846 232.635395 
L 205.118308 232.975995 
L 205.418769 233.316456 
L 205.719231 233.656779 
L 206.019692 233.996962 
L 206.320154 234.337006 
L 206.620615 234.676912 
L 206.921077 235.016679 
L 207.221538 235.356306 
L 207.522 235.695795 
L 207.822462 236.035145 
L 208.122923 236.374355 
L 208.423385 236.713427 
L 208.723846 237.05236 
L 209.024308 237.391154 
L 209.324769 237.729809 
L 209.625231 238.068325 
L 209.925692 238.406703 
L 210.226154 238.744941 
L 210.526615 239.08304 
L 210.827077 239.421 
L 211.127538 239.758822 
L 211.428 240.096504 
L 211.728462 240.434048 
L 212.028923 240.771452 
L 212.329385 241.108718 
L 212.629846 241.445845 
L 212.930308 241.782833 
L 213.230769 242.119681 
L 213.531231 242.456391 
L 213.831692 242.792962 
L 214.132154 243.129394 
L 214.432615 243.465687 
L 214.733077 243.801841 
L 215.033538 244.137857 
L 215.334 244.473733 
L 215.634462 244.80947 
L 215.934923 245.145069 
L 216.235385 245.480528 
L 216.535846 245.815849 
L 216.836308 246.15103 
L 217.136769 246.486073 
L 217.437231 246.820976 
L 217.737692 247.155741 
L 218.038154 247.490367 
L 218.338615 247.824854 
L 218.639077 248.159202 
L 218.939538 248.493411 
L 219.24 248.827481 
L 219.540462 249.161412 
L 219.840923 249.495204 
L 220.141385 249.828857 
L 220.441846 250.162371 
L 220.742308 250.495747 
L 221.042769 250.828983 
L 221.343231 251.162081 
L 221.643692 251.495039 
L 221.944154 251.827859 
L 222.244615 252.160539 
L 222.545077 252.493081 
L 222.845538 252.825484 
L 223.146 253.157748 
L 223.446462 253.489873 
L 223.746923 253.821859 
L 224.047385 254.153706 
L 224.347846 254.485414 
L 224.648308 254.816983 
L 224.948769 255.148413 
L 225.249231 255.479704 
L 225.549692 255.810857 
L 225.850154 256.14187 
L 226.150615 256.472744 
L 226.451077 256.80348 
L 226.751538 257.134076 
L 227.052 257.464534 
L 227.352462 257.794853 
L 227.652923 258.125032 
L 227.953385 258.455073 
L 228.253846 258.784975 
L 228.554308 259.114738 
L 228.854769 259.444362 
L 229.155231 259.773847 
L 229.455692 260.103193 
L 229.756154 260.4324 
L 230.056615 260.761468 
L 230.357077 261.090398 
L 230.657538 261.419188 
L 230.958 261.747839 
L 231.258462 262.076352 
L 231.558923 262.404725 
L 231.859385 262.73296 
L 232.159846 263.061056 
L 232.460308 263.389012 
L 232.760769 263.71683 
L 233.061231 264.044509 
L 233.361692 264.372049 
L 233.662154 264.69945 
L 233.962615 265.026712 
L 234.263077 265.353835 
L 234.563538 265.680819 
L 234.864 266.007664 
L 235.164462 266.33437 
L 235.464923 266.660938 
L 235.765385 266.987366 
L 236.065846 267.313655 
L 236.366308 267.639806 
L 236.666769 267.965817 
L 236.967231 268.29169 
L 237.267692 268.617424 
L 237.568154 268.943018 
L 237.868615 269.268474 
L 238.169077 269.593791 
L 238.469538 269.918969 
L 238.77 270.244008 
L 239.070462 270.568908 
L 239.370923 270.893669 
L 239.671385 271.218291 
L 239.971846 271.542774 
L 240.272308 271.867118 
L 240.572769 272.191324 
L 240.873231 272.51539 
L 241.173692 272.839318 
L 241.474154 273.163106 
L 241.774615 273.486756 
L 242.075077 273.810266 
L 242.375538 274.133638 
L 242.676 274.456871 
L 242.976462 274.779965 
L 243.276923 275.102919 
L 243.577385 275.425735 
L 243.877846 275.748412 
L 244.178308 276.07095 
L 244.478769 276.39335 
L 244.779231 276.71561 
L 245.079692 277.037731 
L 245.380154 277.359713 
L 245.680615 277.681557 
L 245.981077 278.003261 
L 246.281538 278.324826 
L 246.582 278.646253 
L 246.882462 278.967541 
L 247.182923 279.288689 
L 247.483385 279.609699 
L 247.783846 279.93057 
L 248.084308 280.251302 
L 248.384769 280.571894 
L 248.685231 280.892348 
L 248.985692 281.212663 
L 249.286154 281.532839 
L 249.586615 281.852877 
L 249.887077 282.172775 
L 250.187538 282.492534 
L 250.488 282.812154 
L 250.788462 283.131636 
L 251.088923 283.450978 
L 251.389385 283.770182 
L 251.689846 284.089246 
L 251.990308 284.408172 
L 252.290769 284.726959 
L 252.591231 285.045606 
L 252.891692 285.364115 
L 253.192154 285.682485 
L 253.492615 286.000716 
L 253.793077 286.318808 
L 254.093538 286.636761 
L 254.394 286.954575 
L 254.694462 287.27225 
L 254.994923 287.589786 
L 255.295385 287.907184 
L 255.595846 288.224442 
L 255.896308 288.541561 
L 256.196769 288.858542 
L 256.497231 289.175383 
L 256.797692 289.492086 
L 257.098154 289.80865 
L 257.398615 290.125074 
L 257.699077 290.44136 
L 257.999538 290.757507 
L 258.3 291.073515 
L 258.600462 291.389384 
L 258.900923 291.705114 
L 259.201385 292.020705 
L 259.501846 292.336157 
L 259.802308 292.65147 
L 260.102769 292.966644 
L 260.403231 293.28168 
L 260.703692 293.596576 
L 261.004154 293.911333 
L 261.304615 294.225952 
L 261.605077 294.540431 
L 261.905538 294.854772 
L 262.206 295.168974 
L 262.506462 295.483036 
L 262.806923 295.79696 
L 263.107385 296.110745 
L 263.407846 296.424391 
L 263.708308 296.737898 
L 264.008769 297.051266 
L 264.309231 297.364495 
L 264.609692 297.677585 
L 264.910154 297.990536 
L 265.210615 298.303349 
L 265.511077 298.616022 
L 265.811538 298.928556 
L 266.112 299.240952 
L 266.412462 299.553208 
L 266.712923 299.865326 
L 267.013385 300.177305 
L 267.313846 300.489144 
L 267.614308 300.800845 
L 267.914769 301.112407 
L 268.215231 301.42383 
L 268.515692 301.735114 
L 268.816154 302.046259 
L 269.116615 302.357265 
L 269.417077 302.668132 
L 269.717538 302.97886 
L 270.018 303.289449 
L 270.318462 303.5999 
L 270.618923 303.910211 
L 270.919385 304.220383 
L 271.219846 304.530417 
L 271.520308 304.840311 
L 271.820769 305.150067 
L 272.121231 305.459684 
L 272.421692 305.769161 
L 272.722154 306.0785 
L 273.022615 306.3877 
L 273.323077 306.696761 
L 273.623538 307.005683 
L 273.924 307.314466 
L 274.224462 307.62311 
L 274.524923 307.931615 
L 274.825385 308.239981 
L 275.125846 308.548208 
L 275.426308 308.856297 
L 275.726769 309.164246 
L 276.027231 309.472057 
L 276.327692 309.779728 
L 276.628154 310.087261 
L 276.928615 310.394654 
L 277.229077 310.701909 
L 277.529538 311.009025 
L 277.83 311.316002 
L 278.130462 311.622839 
L 278.430923 311.929538 
L 278.731385 312.236098 
L 279.031846 312.542519 
L 279.332308 312.848801 
L 279.632769 313.154945 
L 279.933231 313.460949 
L 280.233692 313.766814 
L 280.534154 314.072541 
L 280.834615 314.378128 
L 281.135077 314.683576 
L 281.435538 314.988886 
L 281.736 315.294056 
L 282.036462 315.599088 
L 282.336923 315.903981 
L 282.637385 316.208735 
L 282.937846 316.513349 
L 283.238308 316.817825 
L 283.538769 317.122162 
L 283.839231 317.42636 
L 284.139692 317.730419 
L 284.440154 318.03434 
L 284.740615 318.338121 
L 285.041077 318.641763 
L 285.341538 318.945266 
L 285.642 319.248631 
L 285.942462 319.551856 
L 286.242923 319.854943 
L 286.543385 320.15789 
L 286.843846 320.460699 
L 287.144308 320.763368 
L 287.444769 321.065899 
L 287.745231 321.368291 
L 288.045692 321.670544 
L 288.346154 321.972658 
L 288.646615 322.274633 
L 288.947077 322.576469 
L 289.247538 322.878166 
L 289.548 323.179724 
L 289.848462 323.481143 
L 290.148923 323.782423 
L 290.449385 324.083565 
L 290.749846 324.384567 
L 291.050308 324.685431 
L 291.350769 324.986155 
L 291.651231 325.286741 
L 291.951692 325.587187 
L 292.252154 325.887495 
L 292.552615 326.187664 
L 292.853077 326.487694 
L 293.153538 326.787585 
L 293.454 327.087337 
L 293.754462 327.38695 
L 294.054923 327.686424 
L 294.355385 327.985759 
L 294.655846 328.284955 
L 294.956308 328.584012 
L 295.256769 328.88293 
L 295.557231 329.18171 
L 295.857692 329.48035 
L 296.158154 329.778852 
L 296.458615 330.077214 
L 296.759077 330.375438 
L 297.059538 330.673523 
L 297.36 330.971468 
L 297.660462 331.269275 
L 297.960923 331.566943 
L 298.261385 331.864472 
L 298.561846 332.161862 
L 298.862308 332.459113 
L 299.162769 332.756225 
L 299.463231 333.053198 
L 299.763692 333.350032 
L 300.064154 333.646728 
L 300.364615 333.943284 
L 300.665077 334.239701 
L 300.965538 334.53598 
L 301.266 334.832119 
L 301.566462 335.12812 
L 301.866923 335.423981 
L 302.167385 335.719704 
L 302.467846 336.015288 
L 302.768308 336.310733 
L 303.068769 336.606039 
L 303.369231 336.901205 
L 303.669692 337.196233 
L 303.970154 337.491123 
L 304.270615 337.785873 
L 304.571077 338.080484 
L 304.871538 338.374956 
L 305.172 338.669289 
L 305.472462 338.963484 
L 305.772923 339.257539 
L 306.073385 339.551456 
L 306.373846 339.845233 
L 306.674308 340.138872 
L 306.974769 340.432371 
L 307.275231 340.725732 
L 307.575692 341.018954 
L 307.876154 341.312037 
L 308.176615 341.604981 
L 308.477077 341.897786 
L 308.777538 342.190452 
L 309.078 342.482979 
L 309.378462 342.775367 
L 309.678923 343.067616 
L 309.979385 343.359726 
L 310.279846 343.651698 
L 310.580308 343.94353 
L 310.880769 344.235223 
L 311.181231 344.526778 
L 311.481692 344.818193 
L 311.782154 345.10947 
L 312.082615 345.400608 
L 312.383077 345.691606 
L 312.683538 345.982466 
L 312.984 346.273187 
L 313.284462 346.563769 
L 313.584923 346.854212 
L 313.885385 347.144516 
L 314.185846 347.434681 
L 314.486308 347.724707 
L 314.786769 348.014595 
L 315.087231 348.304343 
L 315.387692 348.593952 
L 315.688154 348.883423 
L 315.988615 349.172754 
L 316.289077 349.461947 
L 316.589538 349.751 
L 316.89 350.039915 
L 317.190462 350.328691 
L 317.490923 350.617327 
L 317.791385 350.905825 
L 318.091846 351.194184 
L 318.392308 351.482404 
L 318.692769 351.770485 
L 318.993231 352.058427 
L 319.293692 352.34623 
L 319.594154 352.633894 
L 319.894615 352.92142 
L 320.195077 353.208806 
L 320.495538 353.496053 
L 320.796 353.783162 
L 321.096462 354.070131 
L 321.396923 354.356962 
L 321.697385 354.643653 
L 321.997846 354.930206 
L 322.298308 355.21662 
L 322.598769 355.502895 
L 322.899231 355.78903 
L 323.199692 356.075027 
L 323.500154 356.360885 
L 323.800615 356.646604 
L 324.101077 356.932185 
L 324.401538 357.217626 
L 324.702 357.502928 
L 325.002462 357.788091 
L 325.302923 358.073115 
L 325.603385 358.358001 
L 325.903846 358.642747 
L 326.204308 358.927355 
L 326.504769 359.211823 
L 326.805231 359.496153 
L 327.105692 359.780344 
L 327.406154 360.064396 
L 327.706615 360.348308 
L 328.007077 360.632082 
L 328.307538 360.915717 
L 328.608 361.199213 
L 328.908462 361.48257 
L 329.208923 361.765788 
L 329.509385 362.048868 
L 329.809846 362.331808 
L 330.110308 362.614609 
L 330.410769 362.897271 
L 330.711231 363.179795 
L 331.011692 363.462179 
L 331.312154 363.744425 
L 331.612615 364.026532 
L 331.913077 364.308499 
L 332.213538 364.590328 
L 332.514 364.872018 
L 332.814462 365.153569 
L 333.114923 365.43498 
L 333.415385 365.716253 
L 333.715846 365.997387 
L 334.016308 366.278383 
L 334.316769 366.559239 
L 334.617231 366.839956 
L 334.917692 367.120534 
L 335.218154 367.400973 
L 335.518615 367.681274 
L 335.819077 367.961435 
L 336.119538 368.241458 
L 336.42 368.521341 
L 336.720462 368.801086 
L 337.020923 369.080692 
L 337.321385 369.360158 
L 337.621846 369.639486 
L 337.922308 369.918675 
L 338.222769 370.197725 
L 338.523231 370.476636 
L 338.823692 370.755408 
L 339.124154 371.034041 
L 339.424615 371.312535 
L 339.725077 371.590891 
L 340.025538 371.869107 
L 340.326 372.147184 
L 340.626462 372.425123 
L 340.926923 372.702922 
L 341.227385 372.980583 
L 341.527846 373.258104 
L 341.828308 373.535487 
L 342.128769 373.812731 
L 342.429231 374.089835 
L 342.729692 374.366801 
L 343.030154 374.643628 
L 343.330615 374.920316 
L 343.631077 375.196865 
L 343.931538 375.473275 
L 344.232 375.749546 
L 344.532462 376.025679 
L 344.832923 376.301672 
L 345.133385 376.577526 
L 345.433846 376.853241 
L 345.734308 377.128818 
L 346.034769 377.404255 
L 346.335231 377.679554 
L 346.635692 377.954714 
L 346.936154 378.229734 
L 347.236615 378.504616 
L 347.537077 378.779359 
L 347.837538 379.053963 
L 348.138 379.328428 
L 348.438462 379.602754 
L 348.738923 379.876941 
L 349.039385 380.150989 
L 349.339846 380.424898 
L 349.640308 380.698668 
L 349.940769 380.972299 
L 350.241231 381.245792 
L 350.541692 381.519145 
L 350.842154 381.79236 
L 351.142615 382.065435 
L 351.443077 382.338372 
L 351.743538 382.611169 
L 352.044 382.883828 
L 352.344462 383.156348 
L 352.644923 383.428729 
L 352.945385 383.700971 
L 353.245846 383.973074 
L 353.546308 384.245038 
L 353.846769 384.516863 
L 354.147231 384.788549 
L 354.447692 385.060096 
L 354.748154 385.331504 
L 355.048615 385.602773 
L 355.349077 385.873904 
L 355.649538 386.144895 
L 355.95 386.415748 
L 356.250462 386.686461 
L 356.550923 386.957036 
L 356.851385 387.227472 
L 357.151846 387.497768 
L 357.452308 387.767926 
L 357.752769 388.037945 
L 358.053231 388.307825 
L 358.353692 388.577566 
L 358.654154 388.847168 
L 358.954615 389.116631 
L 359.255077 389.385955 
L 359.555538 389.65514 
L 359.856 389.924187 
L 360.156462 390.193094 
L 360.456923 390.461862 
L 360.757385 390.730492 
L 361.057846 390.998982 
L 361.358308 391.267334 
L 361.658769 391.535547 
L 361.959231 391.80362 
L 362.259692 392.071555 
L 362.560154 392.339351 
L 362.860615 392.607008 
L 363.161077 392.874526 
L 363.461538 393.141905 
L 363.762 393.409145 
L 364.062462 393.676246 
L 364.362923 393.943208 
L 364.663385 394.210031 
L 364.963846 394.476716 
L 365.264308 394.743261 
L 365.564769 395.009667 
L 365.865231 395.275935 
L 366.165692 395.542063 
L 366.466154 395.808053 
L 366.766615 396.073904 
L 367.067077 396.339615 
L 367.367538 396.605188 
L 367.668 396.870622 
L 367.968462 397.135917 
L 368.268923 397.401073 
L 368.569385 397.66609 
L 368.869846 397.930968 
L 369.170308 398.195707 
L 369.470769 398.460307 
L 369.771231 398.724769 
L 370.071692 398.989091 
L 370.372154 399.253274 
L 370.672615 399.517319 
L 370.973077 399.781224 
L 371.273538 400.044991 
L 371.574 400.308618 
L 371.874462 400.572107 
L 372.174923 400.835457 
L 372.475385 401.098668 
L 372.775846 401.361739 
L 373.076308 401.624672 
L 373.376769 401.887466 
L 373.677231 402.150121 
L 373.977692 402.412638 
L 374.278154 402.675015 
L 374.578615 402.937253 
L 374.879077 403.199352 
L 375.179538 403.461313 
L 375.48 403.723134 
L 375.780462 403.984816 
L 376.080923 404.24636 
L 376.381385 404.507765 
L 376.681846 404.76903 
L 376.982308 405.030157 
L 377.282769 405.291145 
L 377.583231 405.551994 
L 377.883692 405.812703 
L 378.184154 406.073274 
L 378.484615 406.333706 
L 378.785077 406.594 
L 379.085538 406.854154 
L 379.386 407.114169 
L 379.686462 407.374045 
L 379.986923 407.633782 
L 380.287385 407.893381 
L 380.587846 408.15284 
L 380.888308 408.412161 
L 381.188769 408.671342 
L 381.489231 408.930385 
L 381.789692 409.189289 
L 382.090154 409.448053 
L 382.390615 409.706679 
L 382.691077 409.965166 
L 382.991538 410.223514 
L 383.292 410.481723 
L 383.592462 410.739793 
L 383.892923 410.997724 
L 384.193385 411.255516 
L 384.493846 411.513169 
L 384.794308 411.770684 
L 385.094769 412.028059 
L 385.395231 412.285295 
L 385.695692 412.542393 
L 385.996154 412.799351 
L 386.296615 413.056171 
L 386.597077 413.312852 
L 386.897538 413.569393 
L 387.198 413.825796 
L 387.498462 414.08206 
L 387.798923 414.338185 
L 388.099385 414.594171 
L 388.399846 414.850018 
L 388.700308 415.105726 
L 389.000769 415.361295 
L 389.301231 415.616725 
L 389.601692 415.872016 
L 389.902154 416.127169 
L 390.202615 416.382182 
L 390.503077 416.637057 
L 390.803538 416.891792 
L 391.104 417.146389 
L 391.404462 417.400846 
L 391.704923 417.655165 
L 392.005385 417.909345 
L 392.305846 418.163385 
L 392.606308 418.417287 
L 392.906769 418.67105 
L 393.207231 418.924674 
L 393.507692 419.178159 
L 393.808154 419.431505 
L 394.108615 419.684712 
L 394.409077 419.937781 
L 394.709538 420.19071 
L 395.01 420.4435 
L 395.310462 420.696152 
L 395.610923 420.948664 
L 395.911385 421.201038 
L 396.211846 421.453272 
L 396.512308 421.705368 
L 396.812769 421.957324 
L 397.113231 422.209142 
L 397.413692 422.460821 
L 397.714154 422.712361 
L 398.014615 422.963762 
L 398.315077 423.215024 
L 398.615538 423.466147 
L 398.916 423.717131 
L 399.216462 423.967976 
L 399.516923 424.218682 
L 399.817385 424.46925 
L 400.117846 424.719678 
L 400.418308 424.969967 
L 400.718769 425.220118 
L 401.019231 425.47013 
L 401.319692 425.720002 
L 401.620154 425.969736 
L 401.920615 426.21933 
L 402.221077 426.468786 
L 402.521538 426.718103 
L 402.822 426.967281 
L 403.122462 427.21632 
L 403.422923 427.46522 
L 403.723385 427.713981 
L 404.023846 427.962603 
L 404.324308 428.211086 
L 404.624769 428.459431 
L 404.925231 428.707636 
L 405.225692 428.955702 
L 405.526154 429.20363 
L 405.826615 429.451418 
L 406.127077 429.699068 
L 406.427538 429.946579 
L 406.728 430.19395 
L 407.028462 430.441183 
L 407.328923 430.688277 
L 407.629385 430.935232 
L 407.929846 431.182048 
L 408.230308 431.428725 
L 408.530769 431.675263 
L 408.831231 431.921662 
L 409.131692 432.167922 
L 409.432154 432.414043 
L 409.732615 432.660025 
L 410.033077 432.905869 
L 410.333538 433.151573 
L 410.634 433.397139 
L 410.934462 433.642565 
L 411.234923 433.887853 
L 411.535385 434.133001 
L 411.835846 434.378011 
L 412.136308 434.622882 
L 412.436769 434.867614 
L 412.737231 435.112207 
L 413.037692 435.356661 
L 413.338154 435.600976 
L 413.638615 435.845152 
L 413.939077 436.089189 
L 414.239538 436.333087 
L 414.54 436.576846 
L 414.840462 436.820467 
L 415.140923 437.063948 
L 415.441385 437.30729 
L 415.741846 437.550494 
L 416.042308 437.793558 
L 416.342769 438.036484 
L 416.643231 438.279271 
L 416.943692 438.521918 
L 417.244154 438.764427 
L 417.544615 439.006797 
L 417.845077 439.249028 
L 418.145538 439.49112 
L 418.446 439.733073 
L 418.746462 439.974887 
L 419.046923 440.216562 
L 419.347385 440.458099 
L 419.647846 440.699496 
L 419.948308 440.940754 
L 420.248769 441.181874 
L 420.549231 441.422854 
L 420.849692 441.663696 
L 421.150154 441.904398 
L 421.450615 442.144962 
L 421.751077 442.385386 
L 422.051538 442.625672 
L 422.352 442.865819 
L 422.652462 443.105827 
L 422.952923 443.345696 
L 423.253385 443.585426 
L 423.553846 443.825017 
L 423.854308 444.064469 
L 424.154769 444.303782 
L 424.455231 444.542956 
L 424.755692 444.781992 
L 425.056154 445.020888 
L 425.356615 445.259646 
L 425.657077 445.498264 
L 425.957538 445.736744 
L 426.258 445.975084 
L 426.558462 446.213286 
L 426.858923 446.451349 
L 427.159385 446.689272 
L 427.459846 446.927057 
L 427.760308 447.164703 
L 428.060769 447.40221 
L 428.361231 447.639578 
L 428.661692 447.876807 
L 428.962154 448.113897 
L 429.262615 448.350849 
L 429.563077 448.587661 
L 429.863538 448.824334 
L 430.164 449.060869 
L 430.464462 449.297264 
L 430.764923 449.533521 
L 431.065385 449.769638 
L 431.365846 450.005617 
L 431.666308 450.241456 
L 431.966769 450.477157 
L 432.267231 450.712719 
L 432.567692 450.948142 
L 432.868154 451.183426 
L 433.168615 451.418571 
L 433.469077 451.653577 
L 433.769538 451.888444 
L 434.07 452.123172 
L 434.370462 452.357761 
L 434.670923 452.592212 
L 434.971385 452.826523 
L 435.271846 453.060695 
L 435.572308 453.294729 
L 435.872769 453.528623 
L 436.173231 453.762379 
L 436.473692 453.995996 
L 436.774154 454.229473 
L 437.074615 454.462812 
L 437.375077 454.696012 
L 437.675538 454.929073 
L 437.976 455.161995 
L 438.276462 455.394778 
L 438.576923 455.627422 
L 438.877385 455.859927 
L 439.177846 456.092293 
L 439.478308 456.324521 
L 439.778769 456.556609 
L 440.079231 456.788558 
L 440.379692 457.020369 
L 440.680154 457.25204 
L 440.980615 457.483573 
L 441.281077 457.714966 
L 441.581538 457.946221 
L 441.882 458.177337 
L 442.182462 458.408314 
L 442.482923 458.639152 
L 442.783385 458.869851 
L 443.083846 459.100411 
L 443.384308 459.330832 
L 443.684769 459.561114 
L 443.985231 459.791257 
L 444.285692 460.021261 
L 444.586154 460.251126 
L 444.886615 460.480853 
L 445.187077 460.71044 
L 445.487538 460.939889 
L 445.788 461.169198 
L 446.088462 461.398369 
L 446.388923 461.6274 
L 446.689385 461.856293 
L 446.989846 462.085047 
L 447.290308 462.313662 
L 447.590769 462.542138 
L 447.891231 462.770474 
L 448.191692 462.998672 
L 448.492154 463.226732 
L 448.792615 463.454652 
L 449.093077 463.682433 
L 449.393538 463.910075 
L 449.694 464.137578 
L 449.994462 464.364943 
L 450.294923 464.592168 
L 450.595385 464.819255 
L 450.895846 465.046202 
L 451.196308 465.273011 
L 451.496769 465.499681 
L 451.797231 465.726211 
L 452.097692 465.952603 
L 452.398154 466.178856 
L 452.698615 466.40497 
L 452.999077 466.630945 
L 453.299538 466.856781 
L 453.299538 -163.412308 
L 453.299538 -163.412308 
L 452.999077 -163.412308 
L 452.698615 -163.412308 
L 452.398154 -163.412308 
L 452.097692 -163.412308 
L 451.797231 -163.412308 
L 451.496769 -163.412308 
L 451.196308 -163.412308 
L 450.895846 -163.412308 
L 450.595385 -163.412308 
L 450.294923 -163.412308 
L 449.994462 -163.412308 
L 449.694 -163.412308 
L 449.393538 -163.412308 
L 449.093077 -163.412308 
L 448.792615 -163.412308 
L 448.492154 -163.412308 
L 448.191692 -163.412308 
L 447.891231 -163.412308 
L 447.590769 -163.412308 
L 447.290308 -163.412308 
L 446.989846 -163.412308 
L 446.689385 -163.412308 
L 446.388923 -163.412308 
L 446.088462 -163.412308 
L 445.788 -163.412308 
L 445.487538 -163.412308 
L 445.187077 -163.412308 
L 444.886615 -163.412308 
L 444.586154 -163.412308 
L 444.285692 -163.412308 
L 443.985231 -163.412308 
L 443.684769 -163.412308 
L 443.384308 -163.412308 
L 443.083846 -163.412308 
L 442.783385 -163.412308 
L 442.482923 -163.412308 
L 442.182462 -163.412308 
L 441.882 -163.412308 
L 441.581538 -163.412308 
L 441.281077 -163.412308 
L 440.980615 -163.412308 
L 440.680154 -163.412308 
L 440.379692 -163.412308 
L 440.079231 -163.412308 
L 439.778769 -163.412308 
L 439.478308 -163.412308 
L 439.177846 -163.412308 
L 438.877385 -163.412308 
L 438.576923 -163.412308 
L 438.276462 -163.412308 
L 437.976 -163.412308 
L 437.675538 -163.412308 
L 437.375077 -163.412308 
L 437.074615 -163.412308 
L 436.774154 -163.412308 
L 436.473692 -163.412308 
L 436.173231 -163.412308 
L 435.872769 -163.412308 
L 435.572308 -163.412308 
L 435.271846 -163.412308 
L 434.971385 -163.412308 
L 434.670923 -163.412308 
L 434.370462 -163.412308 
L 434.07 -163.412308 
L 433.769538 -163.412308 
L 433.469077 -163.412308 
L 433.168615 -163.412308 
L 432.868154 -163.412308 
L 432.567692 -163.412308 
L 432.267231 -163.412308 
L 431.966769 -163.412308 
L 431.666308 -163.412308 
L 431.365846 -163.412308 
L 431.065385 -163.412308 
L 430.764923 -163.412308 
L 430.464462 -163.412308 
L 430.164 -163.412308 
L 429.863538 -163.412308 
L 429.563077 -163.412308 
L 429.262615 -163.412308 
L 428.962154 -163.412308 
L 428.661692 -163.412308 
L 428.361231 -163.412308 
L 428.060769 -163.412308 
L 427.760308 -163.412308 
L 427.459846 -163.412308 
L 427.159385 -163.412308 
L 426.858923 -163.412308 
L 426.558462 -163.412308 
L 426.258 -163.412308 
L 425.957538 -163.412308 
L 425.657077 -163.412308 
L 425.356615 -163.412308 
L 425.056154 -163.412308 
L 424.755692 -163.412308 
L 424.455231 -163.412308 
L 424.154769 -163.412308 
L 423.854308 -163.412308 
L 423.553846 -163.412308 
L 423.253385 -163.412308 
L 422.952923 -163.412308 
L 422.652462 -163.412308 
L 422.352 -163.412308 
L 422.051538 -163.412308 
L 421.751077 -163.412308 
L 421.450615 -163.412308 
L 421.150154 -163.412308 
L 420.849692 -163.412308 
L 420.549231 -163.412308 
L 420.248769 -163.412308 
L 419.948308 -163.412308 
L 419.647846 -163.412308 
L 419.347385 -163.412308 
L 419.046923 -163.412308 
L 418.746462 -163.412308 
L 418.446 -163.412308 
L 418.145538 -163.412308 
L 417.845077 -163.412308 
L 417.544615 -163.412308 
L 417.244154 -163.412308 
L 416.943692 -163.412308 
L 416.643231 -163.412308 
L 416.342769 -163.412308 
L 416.042308 -163.412308 
L 415.741846 -163.412308 
L 415.441385 -163.412308 
L 415.140923 -163.412308 
L 414.840462 -163.412308 
L 414.54 -163.412308 
L 414.239538 -163.412308 
L 413.939077 -163.412308 
L 413.638615 -163.412308 
L 413.338154 -163.412308 
L 413.037692 -163.412308 
L 412.737231 -163.412308 
L 412.436769 -163.412308 
L 412.136308 -163.412308 
L 411.835846 -163.412308 
L 411.535385 -163.412308 
L 411.234923 -163.412308 
L 410.934462 -163.412308 
L 410.634 -163.412308 
L 410.333538 -163.412308 
L 410.033077 -163.412308 
L 409.732615 -163.412308 
L 409.432154 -163.412308 
L 409.131692 -163.412308 
L 408.831231 -163.412308 
L 408.530769 -163.412308 
L 408.230308 -163.412308 
L 407.929846 -163.412308 
L 407.629385 -163.412308 
L 407.328923 -163.412308 
L 407.028462 -163.412308 
L 406.728 -163.412308 
L 406.427538 -163.412308 
L 406.127077 -163.412308 
L 405.826615 -163.412308 
L 405.526154 -163.412308 
L 405.225692 -163.412308 
L 404.925231 -163.412308 
L 404.624769 -163.412308 
L 404.324308 -163.412308 
L 404.023846 -163.412308 
L 403.723385 -163.412308 
L 403.422923 -163.412308 
L 403.122462 -163.412308 
L 402.822 -163.412308 
L 402.521538 -163.412308 
L 402.221077 -163.412308 
L 401.920615 -163.412308 
L 401.620154 -163.412308 
L 401.319692 -163.412308 
L 401.019231 -163.412308 
L 400.718769 -163.412308 
L 400.418308 -163.412308 
L 400.117846 -163.412308 
L 399.817385 -163.412308 
L 399.516923 -163.412308 
L 399.216462 -163.412308 
L 398.916 -163.412308 
L 398.615538 -163.412308 
L 398.315077 -163.412308 
L 398.014615 -163.412308 
L 397.714154 -163.412308 
L 397.413692 -163.412308 
L 397.113231 -163.412308 
L 396.812769 -163.412308 
L 396.512308 -163.412308 
L 396.211846 -163.412308 
L 395.911385 -163.412308 
L 395.610923 -163.412308 
L 395.310462 -163.412308 
L 395.01 -163.412308 
L 394.709538 -163.412308 
L 394.409077 -163.412308 
L 394.108615 -163.412308 
L 393.808154 -163.412308 
L 393.507692 -163.412308 
L 393.207231 -163.412308 
L 392.906769 -163.412308 
L 392.606308 -163.412308 
L 392.305846 -163.412308 
L 392.005385 -163.412308 
L 391.704923 -163.412308 
L 391.404462 -163.412308 
L 391.104 -163.412308 
L 390.803538 -163.412308 
L 390.503077 -163.412308 
L 390.202615 -163.412308 
L 389.902154 -163.412308 
L 389.601692 -163.412308 
L 389.301231 -163.412308 
L 389.000769 -163.412308 
L 388.700308 -163.412308 
L 388.399846 -163.412308 
L 388.099385 -163.412308 
L 387.798923 -163.412308 
L 387.498462 -163.412308 
L 387.198 -163.412308 
L 386.897538 -163.412308 
L 386.597077 -163.412308 
L 386.296615 -163.412308 
L 385.996154 -163.412308 
L 385.695692 -163.412308 
L 385.395231 -163.412308 
L 385.094769 -163.412308 
L 384.794308 -163.412308 
L 384.493846 -163.412308 
L 384.193385 -163.412308 
L 383.892923 -163.412308 
L 383.592462 -163.412308 
L 383.292 -163.412308 
L 382.991538 -163.412308 
L 382.691077 -163.412308 
L 382.390615 -163.412308 
L 382.090154 -163.412308 
L 381.789692 -163.412308 
L 381.489231 -163.412308 
L 381.188769 -163.412308 
L 380.888308 -163.412308 
L 380.587846 -163.412308 
L 380.287385 -163.412308 
L 379.986923 -163.412308 
L 379.686462 -163.412308 
L 379.386 -163.412308 
L 379.085538 -163.412308 
L 378.785077 -163.412308 
L 378.484615 -163.412308 
L 378.184154 -163.412308 
L 377.883692 -163.412308 
L 377.583231 -163.412308 
L 377.282769 -163.412308 
L 376.982308 -163.412308 
L 376.681846 -163.412308 
L 376.381385 -163.412308 
L 376.080923 -163.412308 
L 375.780462 -163.412308 
L 375.48 -163.412308 
L 375.179538 -163.412308 
L 374.879077 -163.412308 
L 374.578615 -163.412308 
L 374.278154 -163.412308 
L 373.977692 -163.412308 
L 373.677231 -163.412308 
L 373.376769 -163.412308 
L 373.076308 -163.412308 
L 372.775846 -163.412308 
L 372.475385 -163.412308 
L 372.174923 -163.412308 
L 371.874462 -163.412308 
L 371.574 -163.412308 
L 371.273538 -163.412308 
L 370.973077 -163.412308 
L 370.672615 -163.412308 
L 370.372154 -163.412308 
L 370.071692 -163.412308 
L 369.771231 -163.412308 
L 369.470769 -163.412308 
L 369.170308 -163.412308 
L 368.869846 -163.412308 
L 368.569385 -163.412308 
L 368.268923 -163.412308 
L 367.968462 -163.412308 
L 367.668 -163.412308 
L 367.367538 -163.412308 
L 367.067077 -163.412308 
L 366.766615 -163.412308 
L 366.466154 -163.412308 
L 366.165692 -163.412308 
L 365.865231 -163.412308 
L 365.564769 -163.412308 
L 365.264308 -163.412308 
L 364.963846 -163.412308 
L 364.663385 -163.412308 
L 364.362923 -163.412308 
L 364.062462 -163.412308 
L 363.762 -163.412308 
L 363.461538 -163.412308 
L 363.161077 -163.412308 
L 362.860615 -163.412308 
L 362.560154 -163.412308 
L 362.259692 -163.412308 
L 361.959231 -163.412308 
L 361.658769 -163.412308 
L 361.358308 -163.412308 
L 361.057846 -163.412308 
L 360.757385 -163.412308 
L 360.456923 -163.412308 
L 360.156462 -163.412308 
L 359.856 -163.412308 
L 359.555538 -163.412308 
L 359.255077 -163.412308 
L 358.954615 -163.412308 
L 358.654154 -163.412308 
L 358.353692 -163.412308 
L 358.053231 -163.412308 
L 357.752769 -163.412308 
L 357.452308 -163.412308 
L 357.151846 -163.412308 
L 356.851385 -163.412308 
L 356.550923 -163.412308 
L 356.250462 -163.412308 
L 355.95 -163.412308 
L 355.649538 -163.412308 
L 355.349077 -163.412308 
L 355.048615 -163.412308 
L 354.748154 -163.412308 
L 354.447692 -163.412308 
L 354.147231 -163.412308 
L 353.846769 -163.412308 
L 353.546308 -163.412308 
L 353.245846 -163.412308 
L 352.945385 -163.412308 
L 352.644923 -163.412308 
L 352.344462 -163.412308 
L 352.044 -163.412308 
L 351.743538 -163.412308 
L 351.443077 -163.412308 
L 351.142615 -163.412308 
L 350.842154 -163.412308 
L 350.541692 -163.412308 
L 350.241231 -163.412308 
L 349.940769 -163.412308 
L 349.640308 -163.412308 
L 349.339846 -163.412308 
L 349.039385 -163.412308 
L 348.738923 -163.412308 
L 348.438462 -163.412308 
L 348.138 -163.412308 
L 347.837538 -163.412308 
L 347.537077 -163.412308 
L 347.236615 -163.412308 
L 346.936154 -163.412308 
L 346.635692 -163.412308 
L 346.335231 -163.412308 
L 346.034769 -163.412308 
L 345.734308 -163.412308 
L 345.433846 -163.412308 
L 345.133385 -163.412308 
L 344.832923 -163.412308 
L 344.532462 -163.412308 
L 344.232 -163.412308 
L 343.931538 -163.412308 
L 343.631077 -163.412308 
L 343.330615 -163.412308 
L 343.030154 -163.412308 
L 342.729692 -163.412308 
L 342.429231 -163.412308 
L 342.128769 -163.412308 
L 341.828308 -163.412308 
L 341.527846 -163.412308 
L 341.227385 -163.412308 
L 340.926923 -163.412308 
L 340.626462 -163.412308 
L 340.326 -163.412308 
L 340.025538 -163.412308 
L 339.725077 -163.412308 
L 339.424615 -163.412308 
L 339.124154 -163.412308 
L 338.823692 -163.412308 
L 338.523231 -163.412308 
L 338.222769 -163.412308 
L 337.922308 -163.412308 
L 337.621846 -163.412308 
L 337.321385 -163.412308 
L 337.020923 -163.412308 
L 336.720462 -163.412308 
L 336.42 -163.412308 
L 336.119538 -163.412308 
L 335.819077 -163.412308 
L 335.518615 -163.412308 
L 335.218154 -163.412308 
L 334.917692 -163.412308 
L 334.617231 -163.412308 
L 334.316769 -163.412308 
L 334.016308 -163.412308 
L 333.715846 -163.412308 
L 333.415385 -163.412308 
L 333.114923 -163.412308 
L 332.814462 -163.412308 
L 332.514 -163.412308 
L 332.213538 -163.412308 
L 331.913077 -163.412308 
L 331.612615 -163.412308 
L 331.312154 -163.412308 
L 331.011692 -163.412308 
L 330.711231 -163.412308 
L 330.410769 -163.412308 
L 330.110308 -163.412308 
L 329.809846 -163.412308 
L 329.509385 -163.412308 
L 329.208923 -163.412308 
L 328.908462 -163.412308 
L 328.608 -163.412308 
L 328.307538 -163.412308 
L 328.007077 -163.412308 
L 327.706615 -163.412308 
L 327.406154 -163.412308 
L 327.105692 -163.412308 
L 326.805231 -163.412308 
L 326.504769 -163.412308 
L 326.204308 -163.412308 
L 325.903846 -163.412308 
L 325.603385 -163.412308 
L 325.302923 -163.412308 
L 325.002462 -163.412308 
L 324.702 -163.412308 
L 324.401538 -163.412308 
L 324.101077 -163.412308 
L 323.800615 -163.412308 
L 323.500154 -163.412308 
L 323.199692 -163.412308 
L 322.899231 -163.412308 
L 322.598769 -163.412308 
L 322.298308 -163.412308 
L 321.997846 -163.412308 
L 321.697385 -163.412308 
L 321.396923 -163.412308 
L 321.096462 -163.412308 
L 320.796 -163.412308 
L 320.495538 -163.412308 
L 320.195077 -163.412308 
L 319.894615 -163.412308 
L 319.594154 -163.412308 
L 319.293692 -163.412308 
L 318.993231 -163.412308 
L 318.692769 -163.412308 
L 318.392308 -163.412308 
L 318.091846 -163.412308 
L 317.791385 -163.412308 
L 317.490923 -163.412308 
L 317.190462 -163.412308 
L 316.89 -163.412308 
L 316.589538 -163.412308 
L 316.289077 -163.412308 
L 315.988615 -163.412308 
L 315.688154 -163.412308 
L 315.387692 -163.412308 
L 315.087231 -163.412308 
L 314.786769 -163.412308 
L 314.486308 -163.412308 
L 314.185846 -163.412308 
L 313.885385 -163.412308 
L 313.584923 -163.412308 
L 313.284462 -163.412308 
L 312.984 -163.412308 
L 312.683538 -163.412308 
L 312.383077 -163.412308 
L 312.082615 -163.412308 
L 311.782154 -163.412308 
L 311.481692 -163.412308 
L 311.181231 -163.412308 
L 310.880769 -163.412308 
L 310.580308 -163.412308 
L 310.279846 -163.412308 
L 309.979385 -163.412308 
L 309.678923 -163.412308 
L 309.378462 -163.412308 
L 309.078 -163.412308 
L 308.777538 -163.412308 
L 308.477077 -163.412308 
L 308.176615 -163.412308 
L 307.876154 -163.412308 
L 307.575692 -163.412308 
L 307.275231 -163.412308 
L 306.974769 -163.412308 
L 306.674308 -163.412308 
L 306.373846 -163.412308 
L 306.073385 -163.412308 
L 305.772923 -163.412308 
L 305.472462 -163.412308 
L 305.172 -163.412308 
L 304.871538 -163.412308 
L 304.571077 -163.412308 
L 304.270615 -163.412308 
L 303.970154 -163.412308 
L 303.669692 -163.412308 
L 303.369231 -163.412308 
L 303.068769 -163.412308 
L 302.768308 -163.412308 
L 302.467846 -163.412308 
L 302.167385 -163.412308 
L 301.866923 -163.412308 
L 301.566462 -163.412308 
L 301.266 -163.412308 
L 300.965538 -163.412308 
L 300.665077 -163.412308 
L 300.364615 -163.412308 
L 300.064154 -163.412308 
L 299.763692 -163.412308 
L 299.463231 -163.412308 
L 299.162769 -163.412308 
L 298.862308 -163.412308 
L 298.561846 -163.412308 
L 298.261385 -163.412308 
L 297.960923 -163.412308 
L 297.660462 -163.412308 
L 297.36 -163.412308 
L 297.059538 -163.412308 
L 296.759077 -163.412308 
L 296.458615 -163.412308 
L 296.158154 -163.412308 
L 295.857692 -163.412308 
L 295.557231 -163.412308 
L 295.256769 -163.412308 
L 294.956308 -163.412308 
L 294.655846 -163.412308 
L 294.355385 -163.412308 
L 294.054923 -163.412308 
L 293.754462 -163.412308 
L 293.454 -163.412308 
L 293.153538 -163.412308 
L 292.853077 -163.412308 
L 292.552615 -163.412308 
L 292.252154 -163.412308 
L 291.951692 -163.412308 
L 291.651231 -163.412308 
L 291.350769 -163.412308 
L 291.050308 -163.412308 
L 290.749846 -163.412308 
L 290.449385 -163.412308 
L 290.148923 -163.412308 
L 289.848462 -163.412308 
L 289.548 -163.412308 
L 289.247538 -163.412308 
L 288.947077 -163.412308 
L 288.646615 -163.412308 
L 288.346154 -163.412308 
L 288.045692 -163.412308 
L 287.745231 -163.412308 
L 287.444769 -163.412308 
L 287.144308 -163.412308 
L 286.843846 -163.412308 
L 286.543385 -163.412308 
L 286.242923 -163.412308 
L 285.942462 -163.412308 
L 285.642 -163.412308 
L 285.341538 -163.412308 
L 285.041077 -163.412308 
L 284.740615 -163.412308 
L 284.440154 -163.412308 
L 284.139692 -163.412308 
L 283.839231 -163.412308 
L 283.538769 -163.412308 
L 283.238308 -163.412308 
L 282.937846 -163.412308 
L 282.637385 -163.412308 
L 282.336923 -163.412308 
L 282.036462 -163.412308 
L 281.736 -163.412308 
L 281.435538 -163.412308 
L 281.135077 -163.412308 
L 280.834615 -163.412308 
L 280.534154 -163.412308 
L 280.233692 -163.412308 
L 279.933231 -163.412308 
L 279.632769 -163.412308 
L 279.332308 -163.412308 
L 279.031846 -163.412308 
L 278.731385 -163.412308 
L 278.430923 -163.412308 
L 278.130462 -163.412308 
L 277.83 -163.412308 
L 277.529538 -163.412308 
L 277.229077 -163.412308 
L 276.928615 -163.412308 
L 276.628154 -163.412308 
L 276.327692 -163.412308 
L 276.027231 -163.412308 
L 275.726769 -163.412308 
L 275.426308 -163.412308 
L 275.125846 -163.412308 
L 274.825385 -163.412308 
L 274.524923 -163.412308 
L 274.224462 -163.412308 
L 273.924 -163.412308 
L 273.623538 -163.412308 
L 273.323077 -163.412308 
L 273.022615 -163.412308 
L 272.722154 -163.412308 
L 272.421692 -163.412308 
L 272.121231 -163.412308 
L 271.820769 -163.412308 
L 271.520308 -163.412308 
L 271.219846 -163.412308 
L 270.919385 -163.412308 
L 270.618923 -163.412308 
L 270.318462 -163.412308 
L 270.018 -163.412308 
L 269.717538 -163.412308 
L 269.417077 -163.412308 
L 269.116615 -163.412308 
L 268.816154 -163.412308 
L 268.515692 -163.412308 
L 268.215231 -163.412308 
L 267.914769 -163.412308 
L 267.614308 -163.412308 
L 267.313846 -163.412308 
L 267.013385 -163.412308 
L 266.712923 -163.412308 
L 266.412462 -163.412308 
L 266.112 -163.412308 
L 265.811538 -163.412308 
L 265.511077 -163.412308 
L 265.210615 -163.412308 
L 264.910154 -163.412308 
L 264.609692 -163.412308 
L 264.309231 -163.412308 
L 264.008769 -163.412308 
L 263.708308 -163.412308 
L 263.407846 -163.412308 
L 263.107385 -163.412308 
L 262.806923 -163.412308 
L 262.506462 -163.412308 
L 262.206 -163.412308 
L 261.905538 -163.412308 
L 261.605077 -163.412308 
L 261.304615 -163.412308 
L 261.004154 -163.412308 
L 260.703692 -163.412308 
L 260.403231 -163.412308 
L 260.102769 -163.412308 
L 259.802308 -163.412308 
L 259.501846 -163.412308 
L 259.201385 -163.412308 
L 258.900923 -163.412308 
L 258.600462 -163.412308 
L 258.3 -163.412308 
L 257.999538 -163.412308 
L 257.699077 -163.412308 
L 257.398615 -163.412308 
L 257.098154 -163.412308 
L 256.797692 -163.412308 
L 256.497231 -163.412308 
L 256.196769 -163.412308 
L 255.896308 -163.412308 
L 255.595846 -163.412308 
L 255.295385 -163.412308 
L 254.994923 -163.412308 
L 254.694462 -163.412308 
L 254.394 -163.412308 
L 254.093538 -163.412308 
L 253.793077 -163.412308 
L 253.492615 -163.412308 
L 253.192154 -163.412308 
L 252.891692 -163.412308 
L 252.591231 -163.412308 
L 252.290769 -163.412308 
L 251.990308 -163.412308 
L 251.689846 -163.412308 
L 251.389385 -163.412308 
L 251.088923 -163.412308 
L 250.788462 -163.412308 
L 250.488 -163.412308 
L 250.187538 -163.412308 
L 249.887077 -163.412308 
L 249.586615 -163.412308 
L 249.286154 -163.412308 
L 248.985692 -163.412308 
L 248.685231 -163.412308 
L 248.384769 -163.412308 
L 248.084308 -163.412308 
L 247.783846 -163.412308 
L 247.483385 -163.412308 
L 247.182923 -163.412308 
L 246.882462 -163.412308 
L 246.582 -163.412308 
L 246.281538 -163.412308 
L 245.981077 -163.412308 
L 245.680615 -163.412308 
L 245.380154 -163.412308 
L 245.079692 -163.412308 
L 244.779231 -163.412308 
L 244.478769 -163.412308 
L 244.178308 -163.412308 
L 243.877846 -163.412308 
L 243.577385 -163.412308 
L 243.276923 -163.412308 
L 242.976462 -163.412308 
L 242.676 -163.412308 
L 242.375538 -163.412308 
L 242.075077 -163.412308 
L 241.774615 -163.412308 
L 241.474154 -163.412308 
L 241.173692 -163.412308 
L 240.873231 -163.412308 
L 240.572769 -163.412308 
L 240.272308 -163.412308 
L 239.971846 -163.412308 
L 239.671385 -163.412308 
L 239.370923 -163.412308 
L 239.070462 -163.412308 
L 238.77 -163.412308 
L 238.469538 -163.412308 
L 238.169077 -163.412308 
L 237.868615 -163.412308 
L 237.568154 -163.412308 
L 237.267692 -163.412308 
L 236.967231 -163.412308 
L 236.666769 -163.412308 
L 236.366308 -163.412308 
L 236.065846 -163.412308 
L 235.765385 -163.412308 
L 235.464923 -163.412308 
L 235.164462 -163.412308 
L 234.864 -163.412308 
L 234.563538 -163.412308 
L 234.263077 -163.412308 
L 233.962615 -163.412308 
L 233.662154 -163.412308 
L 233.361692 -163.412308 
L 233.061231 -163.412308 
L 232.760769 -163.412308 
L 232.460308 -163.412308 
L 232.159846 -163.412308 
L 231.859385 -163.412308 
L 231.558923 -163.412308 
L 231.258462 -163.412308 
L 230.958 -163.412308 
L 230.657538 -163.412308 
L 230.357077 -163.412308 
L 230.056615 -163.412308 
L 229.756154 -163.412308 
L 229.455692 -163.412308 
L 229.155231 -163.412308 
L 228.854769 -163.412308 
L 228.554308 -163.412308 
L 228.253846 -163.412308 
L 227.953385 -163.412308 
L 227.652923 -163.412308 
L 227.352462 -163.412308 
L 227.052 -163.412308 
L 226.751538 -163.412308 
L 226.451077 -163.412308 
L 226.150615 -163.412308 
L 225.850154 -163.412308 
L 225.549692 -163.412308 
L 225.249231 -163.412308 
L 224.948769 -163.412308 
L 224.648308 -163.412308 
L 224.347846 -163.412308 
L 224.047385 -163.412308 
L 223.746923 -163.412308 
L 223.446462 -163.412308 
L 223.146 -163.412308 
L 222.845538 -163.412308 
L 222.545077 -163.412308 
L 222.244615 -163.412308 
L 221.944154 -163.412308 
L 221.643692 -163.412308 
L 221.343231 -163.412308 
L 221.042769 -163.412308 
L 220.742308 -163.412308 
L 220.441846 -163.412308 
L 220.141385 -163.412308 
L 219.840923 -163.412308 
L 219.540462 -163.412308 
L 219.24 -163.412308 
L 218.939538 -163.412308 
L 218.639077 -163.412308 
L 218.338615 -163.412308 
L 218.038154 -163.412308 
L 217.737692 -163.412308 
L 217.437231 -163.412308 
L 217.136769 -163.412308 
L 216.836308 -163.412308 
L 216.535846 -163.412308 
L 216.235385 -163.412308 
L 215.934923 -163.412308 
L 215.634462 -163.412308 
L 215.334 -163.412308 
L 215.033538 -163.412308 
L 214.733077 -163.412308 
L 214.432615 -163.412308 
L 214.132154 -163.412308 
L 213.831692 -163.412308 
L 213.531231 -163.412308 
L 213.230769 -163.412308 
L 212.930308 -163.412308 
L 212.629846 -163.412308 
L 212.329385 -163.412308 
L 212.028923 -163.412308 
L 211.728462 -163.412308 
L 211.428 -163.412308 
L 211.127538 -163.412308 
L 210.827077 -163.412308 
L 210.526615 -163.412308 
L 210.226154 -163.412308 
L 209.925692 -163.412308 
L 209.625231 -163.412308 
L 209.324769 -163.412308 
L 209.024308 -163.412308 
L 208.723846 -163.412308 
L 208.423385 -163.412308 
L 208.122923 -163.412308 
L 207.822462 -163.412308 
L 207.522 -163.412308 
L 207.221538 -163.412308 
L 206.921077 -163.412308 
L 206.620615 -163.412308 
L 206.320154 -163.412308 
L 206.019692 -163.412308 
L 205.719231 -163.412308 
L 205.418769 -163.412308 
L 205.118308 -163.412308 
L 204.817846 -163.412308 
L 204.517385 -163.412308 
L 204.216923 -163.412308 
L 203.916462 -163.412308 
L 203.616 -163.412308 
L 203.315538 -163.412308 
L 203.015077 -163.412308 
L 202.714615 -163.412308 
L 202.414154 -163.412308 
L 202.113692 -163.412308 
L 201.813231 -163.412308 
L 201.512769 -163.412308 
L 201.212308 -163.412308 
L 200.911846 -163.412308 
L 200.611385 -163.412308 
L 200.310923 -163.412308 
L 200.010462 -163.412308 
L 199.71 -163.412308 
L 199.409538 -163.412308 
L 199.109077 -163.412308 
L 198.808615 -163.412308 
L 198.508154 -163.412308 
L 198.207692 -163.412308 
L 197.907231 -163.412308 
L 197.606769 -163.412308 
L 197.306308 -163.412308 
L 197.005846 -163.412308 
L 196.705385 -163.412308 
L 196.404923 -163.412308 
L 196.104462 -163.412308 
L 195.804 -163.412308 
L 195.503538 -163.412308 
L 195.203077 -163.412308 
L 194.902615 -163.412308 
L 194.602154 -163.412308 
L 194.301692 -163.412308 
L 194.001231 -163.412308 
L 193.700769 -163.412308 
L 193.400308 -163.412308 
L 193.099846 -163.412308 
L 192.799385 -163.412308 
L 192.498923 -163.412308 
L 192.198462 -163.412308 
L 191.898 -163.412308 
L 191.597538 -163.412308 
L 191.297077 -163.412308 
L 190.996615 -163.412308 
L 190.696154 -163.412308 
L 190.395692 -163.412308 
L 190.095231 -163.412308 
L 189.794769 -163.412308 
L 189.494308 -163.412308 
L 189.193846 -163.412308 
L 188.893385 -163.412308 
L 188.592923 -163.412308 
L 188.292462 -163.412308 
L 187.992 -163.412308 
L 187.691538 -163.412308 
L 187.391077 -163.412308 
L 187.090615 -163.412308 
L 186.790154 -163.412308 
L 186.489692 -163.412308 
L 186.189231 -163.412308 
L 185.888769 -163.412308 
L 185.588308 -163.412308 
L 185.287846 -163.412308 
L 184.987385 -163.412308 
L 184.686923 -163.412308 
L 184.386462 -163.412308 
L 184.086 -163.412308 
L 183.785538 -163.412308 
L 183.485077 -163.412308 
L 183.184615 -163.412308 
L 182.884154 -163.412308 
L 182.583692 -163.412308 
L 182.283231 -163.412308 
L 181.982769 -163.412308 
L 181.682308 -163.412308 
L 181.381846 -163.412308 
L 181.081385 -163.412308 
L 180.780923 -163.412308 
L 180.480462 -163.412308 
L 180.18 -163.412308 
L 179.879538 -163.412308 
L 179.579077 -163.412308 
L 179.278615 -163.412308 
L 178.978154 -163.412308 
L 178.677692 -163.412308 
L 178.377231 -163.412308 
L 178.076769 -163.412308 
L 177.776308 -163.412308 
L 177.475846 -163.412308 
L 177.175385 -163.412308 
L 176.874923 -163.412308 
L 176.574462 -163.412308 
L 176.274 -163.412308 
L 175.973538 -163.412308 
L 175.673077 -163.412308 
L 175.372615 -163.412308 
L 175.072154 -163.412308 
L 174.771692 -163.412308 
L 174.471231 -163.412308 
L 174.170769 -163.412308 
L 173.870308 -163.412308 
L 173.569846 -163.412308 
L 173.269385 -163.412308 
L 172.968923 -163.412308 
L 172.668462 -163.412308 
L 172.368 -163.412308 
L 172.067538 -163.412308 
L 171.767077 -163.412308 
L 171.466615 -163.412308 
L 171.166154 -163.412308 
L 170.865692 -163.412308 
L 170.565231 -163.412308 
L 170.264769 -163.412308 
L 169.964308 -163.412308 
L 169.663846 -163.412308 
L 169.363385 -163.412308 
L 169.062923 -163.412308 
L 168.762462 -163.412308 
L 168.462 -163.412308 
L 168.161538 -163.412308 
L 167.861077 -163.412308 
L 167.560615 -163.412308 
L 167.260154 -163.412308 
L 166.959692 -163.412308 
L 166.659231 -163.412308 
L 166.358769 -163.412308 
L 166.058308 -163.412308 
L 165.757846 -163.412308 
L 165.457385 -163.412308 
L 165.156923 -163.412308 
L 164.856462 -163.412308 
L 164.556 -163.412308 
L 164.255538 -163.412308 
L 163.955077 -163.412308 
L 163.654615 -163.412308 
L 163.354154 -163.412308 
L 163.053692 -163.412308 
L 162.753231 -163.412308 
L 162.452769 -163.412308 
L 162.152308 -163.412308 
L 161.851846 -163.412308 
L 161.551385 -163.412308 
L 161.250923 -163.412308 
L 160.950462 -163.412308 
L 160.65 -163.412308 
L 160.349538 -163.412308 
L 160.049077 -163.412308 
L 159.748615 -163.412308 
L 159.448154 -163.412308 
L 159.147692 -163.412308 
L 158.847231 -163.412308 
L 158.546769 -163.412308 
L 158.246308 -163.412308 
L 157.945846 -163.412308 
L 157.645385 -163.412308 
L 157.344923 -163.412308 
L 157.044462 -163.412308 
L 156.744 -163.412308 
L 156.443538 -163.412308 
L 156.143077 -163.412308 
L 155.842615 -163.412308 
L 155.542154 -163.412308 
L 155.241692 -163.412308 
L 154.941231 -163.412308 
L 154.640769 -163.412308 
L 154.340308 -163.412308 
L 154.039846 -163.412308 
L 153.739385 -163.412308 
L 153.438923 -163.412308 
L 153.138462 -163.412308 
L 152.838 -163.412308 
L 152.537538 -163.412308 
L 152.237077 -163.412308 
L 151.936615 -163.412308 
L 151.636154 -163.412308 
L 151.335692 -163.412308 
L 151.035231 -163.412308 
L 150.734769 -163.412308 
L 150.434308 -163.412308 
L 150.133846 -163.412308 
L 149.833385 -163.412308 
L 149.532923 -163.412308 
L 149.232462 -163.412308 
L 148.932 -163.412308 
L 148.631538 -163.412308 
L 148.331077 -163.412308 
L 148.030615 -163.412308 
L 147.730154 -163.412308 
L 147.429692 -163.412308 
L 147.129231 -163.412308 
L 146.828769 -163.412308 
L 146.528308 -163.412308 
L 146.227846 -163.412308 
L 145.927385 -163.412308 
L 145.626923 -163.412308 
L 145.326462 -163.412308 
L 145.026 -163.412308 
L 144.725538 -163.412308 
L 144.425077 -163.412308 
L 144.124615 -163.412308 
L 143.824154 -163.412308 
L 143.523692 -163.412308 
L 143.223231 -163.412308 
L 142.922769 -163.412308 
L 142.622308 -163.412308 
L 142.321846 -163.412308 
L 142.021385 -163.412308 
L 141.720923 -163.412308 
L 141.420462 -163.412308 
L 141.12 -163.412308 
L 140.819538 -163.412308 
L 140.519077 -163.412308 
L 140.218615 -163.412308 
L 139.918154 -163.412308 
L 139.617692 -163.412308 
L 139.317231 -163.412308 
L 139.016769 -163.412308 
L 138.716308 -163.412308 
L 138.415846 -163.412308 
L 138.115385 -163.412308 
L 137.814923 -163.412308 
L 137.514462 -163.412308 
L 137.214 -163.412308 
L 136.913538 -163.412308 
L 136.613077 -163.412308 
L 136.312615 -163.412308 
L 136.012154 -163.412308 
L 135.711692 -163.412308 
L 135.411231 -163.412308 
L 135.110769 -163.412308 
L 134.810308 -163.412308 
L 134.509846 -163.412308 
L 134.209385 -163.412308 
L 133.908923 -163.412308 
L 133.608462 -163.412308 
L 133.308 -163.412308 
L 133.007538 -163.412308 
L 132.707077 -163.412308 
L 132.406615 -163.412308 
L 132.106154 -163.412308 
L 131.805692 -163.412308 
L 131.505231 -163.412308 
L 131.204769 -163.412308 
L 130.904308 -163.412308 
L 130.603846 -163.412308 
L 130.303385 -163.412308 
L 130.002923 -163.412308 
L 129.702462 -163.412308 
L 129.402 -163.412308 
L 129.101538 -163.412308 
L 128.801077 -163.412308 
L 128.500615 -163.412308 
L 128.200154 -163.412308 
L 127.899692 -163.412308 
L 127.599231 -163.412308 
L 127.298769 -163.412308 
L 126.998308 -163.412308 
L 126.697846 -163.412308 
L 126.397385 -163.412308 
L 126.096923 -163.412308 
L 125.796462 -163.412308 
L 125.496 -163.412308 
L 125.195538 -163.412308 
L 124.895077 -163.412308 
L 124.594615 -163.412308 
L 124.294154 -163.412308 
L 123.993692 -163.412308 
L 123.693231 -163.412308 
L 123.392769 -163.412308 
L 123.092308 -163.412308 
L 122.791846 -163.412308 
L 122.491385 -163.412308 
L 122.190923 -163.412308 
L 121.890462 -163.412308 
L 121.59 -163.412308 
L 121.289538 -163.412308 
L 120.989077 -163.412308 
L 120.688615 -163.412308 
L 120.388154 -163.412308 
L 120.087692 -163.412308 
L 119.787231 -163.412308 
L 119.486769 -163.412308 
L 119.186308 -163.412308 
L 118.885846 -163.412308 
L 118.585385 -163.412308 
L 118.284923 -163.412308 
L 117.984462 -163.412308 
L 117.684 -163.412308 
L 117.383538 -163.412308 
L 117.083077 -163.412308 
L 116.782615 -163.412308 
L 116.482154 -163.412308 
L 116.181692 -163.412308 
L 115.881231 -163.412308 
L 115.580769 -163.412308 
L 115.280308 -163.412308 
L 114.979846 -163.412308 
L 114.679385 -163.412308 
L 114.378923 -163.412308 
L 114.078462 -163.412308 
L 113.778 -163.412308 
L 113.477538 -163.412308 
L 113.177077 -163.412308 
L 112.876615 -163.412308 
L 112.576154 -163.412308 
L 112.275692 -163.412308 
L 111.975231 -163.412308 
L 111.674769 -163.412308 
L 111.374308 -163.412308 
L 111.073846 -163.412308 
L 110.773385 -163.412308 
L 110.472923 -163.412308 
L 110.172462 -163.412308 
L 109.872 -163.412308 
L 109.571538 -163.412308 
L 109.271077 -163.412308 
L 108.970615 -163.412308 
L 108.670154 -163.412308 
L 108.369692 -163.412308 
L 108.069231 -163.412308 
L 107.768769 -163.412308 
L 107.468308 -163.412308 
L 107.167846 -163.412308 
L 106.867385 -163.412308 
L 106.566923 -163.412308 
L 106.266462 -163.412308 
L 105.966 -163.412308 
L 105.665538 -163.412308 
L 105.365077 -163.412308 
L 105.064615 -163.412308 
L 104.764154 -163.412308 
L 104.463692 -163.412308 
L 104.163231 -163.412308 
L 103.862769 -163.412308 
L 103.562308 -163.412308 
L 103.261846 -163.412308 
L 102.961385 -163.412308 
L 102.660923 -163.412308 
L 102.360462 -163.412308 
L 102.06 -163.412308 
L 101.759538 -163.412308 
L 101.459077 -163.412308 
L 101.158615 -163.412308 
L 100.858154 -163.412308 
L 100.557692 -163.412308 
L 100.257231 -163.412308 
L 99.956769 -163.412308 
L 99.656308 -163.412308 
L 99.355846 -163.412308 
L 99.055385 -163.412308 
L 98.754923 -163.412308 
L 98.454462 -163.412308 
L 98.154 -163.412308 
L 97.853538 -163.412308 
L 97.553077 -163.412308 
L 97.252615 -163.412308 
L 96.952154 -163.412308 
L 96.651692 -163.412308 
L 96.351231 -163.412308 
L 96.050769 -163.412308 
L 95.750308 -163.412308 
L 95.449846 -163.412308 
L 95.149385 -163.412308 
L 94.848923 -163.412308 
L 94.548462 -163.412308 
L 94.248 -163.412308 
L 93.947538 -163.412308 
L 93.647077 -163.412308 
L 93.346615 -163.412308 
L 93.046154 -163.412308 
L 92.745692 -163.412308 
L 92.445231 -163.412308 
L 92.144769 -163.412308 
L 91.844308 -163.412308 
L 91.543846 -163.412308 
L 91.243385 -163.412308 
L 90.942923 -163.412308 
L 90.642462 -163.412308 
L 90.342 -163.412308 
L 90.041538 -163.412308 
L 89.741077 -163.412308 
L 89.440615 -163.412308 
L 89.140154 -163.412308 
L 88.839692 -163.412308 
L 88.539231 -163.412308 
L 88.238769 -163.412308 
L 87.938308 -163.412308 
L 87.637846 -163.412308 
L 87.337385 -163.412308 
L 87.036923 -163.412308 
L 86.736462 -163.412308 
L 86.436 -163.412308 
L 86.135538 -163.412308 
L 85.835077 -163.412308 
L 85.534615 -163.412308 
L 85.234154 -163.412308 
L 84.933692 -163.412308 
L 84.633231 -163.412308 
L 84.332769 -163.412308 
L 84.032308 -163.412308 
L 83.731846 -163.412308 
L 83.431385 -163.412308 
L 83.130923 -163.412308 
L 82.830462 -163.412308 
L 82.53 -163.412308 
L 82.229538 -163.412308 
L 81.929077 -163.412308 
L 81.628615 -163.412308 
L 81.328154 -163.412308 
L 81.027692 -163.412308 
L 80.727231 -163.412308 
L 80.426769 -163.412308 
L 80.126308 -163.412308 
L 79.825846 -163.412308 
L 79.525385 -163.412308 
L 79.224923 -163.412308 
L 78.924462 -163.412308 
L 78.624 -163.412308 
L 78.323538 -163.412308 
L 78.023077 -163.412308 
L 77.722615 -163.412308 
L 77.422154 -163.412308 
L 77.121692 -163.412308 
L 76.821231 -163.412308 
L 76.520769 -163.412308 
L 76.220308 -163.412308 
L 75.919846 -163.412308 
L 75.619385 -163.412308 
L 75.318923 -163.412308 
L 75.018462 -163.412308 
L 74.718 -163.412308 
L 74.417538 -163.412308 
L 74.117077 -163.412308 
L 73.816615 -163.412308 
L 73.516154 -163.412308 
L 73.215692 -163.412308 
L 72.915231 -163.412308 
L 72.614769 -163.412308 
L 72.314308 -163.412308 
L 72.013846 -163.412308 
L 71.713385 -163.412308 
L 71.412923 -163.412308 
L 71.112462 -163.412308 
L 70.812 -163.412308 
L 70.511538 -163.412308 
L 70.211077 -163.412308 
L 69.910615 -163.412308 
L 69.610154 -163.412308 
L 69.309692 -163.412308 
L 69.009231 -163.412308 
L 68.708769 -163.412308 
L 68.408308 -163.412308 
L 68.107846 -163.412308 
L 67.807385 -163.412308 
L 67.506923 -163.412308 
L 67.206462 -163.412308 
L 66.906 -163.412308 
L 66.605538 -163.412308 
L 66.305077 -163.412308 
L 66.004615 -163.412308 
L 65.704154 -163.412308 
L 65.403692 -163.412308 
L 65.103231 -163.412308 
L 64.802769 -163.412308 
L 64.502308 -163.412308 
L 64.201846 -163.412308 
L 63.901385 -163.412308 
L 63.600923 -163.412308 
L 63.300462 -163.412308 
L 63 -163.412308 
z
" clip-path="url(#p153835d648)" style="fill: #ff0000; fill-opacity: 0.25; stroke: #ff0000; stroke-opacity: 0.25"/>
   </g>
   <g id="PathCollection_1">
    <defs>
     <path id="me38318acb7" d="M -5 5 
L 5 5 
L 5 -5 
L -5 -5 
z
" style="stroke: #ff0000"/>
    </defs>
    <g clip-path="url(#p153835d648)">
     <use xlink:href="#me38318acb7" x="63" y="88.093385" style="fill: #ff0000; stroke: #ff0000"/>
     <use xlink:href="#me38318acb7" x="123.092308" y="84.361846" style="fill: #ff0000; stroke: #ff0000"/>
     <use xlink:href="#me38318acb7" x="183.184615" y="207.502615" style="fill: #ff0000; stroke: #ff0000"/>
     <use xlink:href="#me38318acb7" x="303.369231" y="367.958769" style="fill: #ff0000; stroke: #ff0000"/>
     <use xlink:href="#me38318acb7" x="423.553846" y="432.589015" style="fill: #ff0000; stroke: #ff0000"/>
     <use xlink:href="#me38318acb7" x="483.646154" y="488.114308" style="fill: #ff0000; stroke: #ff0000"/>
    </g>
   </g>
   <g id="matplotlib.axis_1">
    <g id="xtick_1">
     <g id="line2d_1">
      <path d="M 63 448.56 
L 63 60.48 
" clip-path="url(#p153835d648)" style="fill: none; stroke: #b0b0b0; stroke-width: 0.8; stroke-linecap: square"/>
     </g>
     <g id="line2d_2">
      <defs>
       <path id="mf9815a29f4" d="M 0 0 
L 0 3.5 
" style="stroke: #000000; stroke-width: 0.8"/>
      </defs>
      <g>
       <use xlink:href="#mf9815a29f4" x="63" y="448.56" style="stroke: #000000; stroke-width: 0.8"/>
      </g>
     </g>
     <g id="text_1">
      <!-- 36 -->
      <g transform="translate(56.6375 463.158437) scale(0.1 -0.1)">
       <defs>
        <path id="DejaVuSans-33" d="M 2597 2516 
Q 3050 2419 3304 2112 
Q 3559 1806 3559 1356 
Q 3559 666 3084 287 
Q 2609 -91 1734 -91 
Q 1441 -91 1130 -33 
Q 819 25 488 141 
L 488 750 
Q 750 597 1062 519 
Q 1375 441 1716 441 
Q 2309 441 2620 675 
Q 2931 909 2931 1356 
Q 2931 1769 2642 2001 
Q 2353 2234 1838 2234 
L 1294 2234 
L 1294 2753 
L 1863 2753 
Q 2328 2753 2575 2939 
Q 2822 3125 2822 3475 
Q 2822 3834 2567 4026 
Q 2313 4219 1838 4219 
Q 1578 4219 1281 4162 
Q 984 4106 628 3988 
L 628 4550 
Q 988 4650 1302 4700 
Q 1616 4750 1894 4750 
Q 2613 4750 3031 4423 
Q 3450 4097 3450 3541 
Q 3450 3153 3228 2886 
Q 3006 2619 2597 2516 
z
" transform="scale(0.015625)"/>
        <path id="DejaVuSans-36" d="M 2113 2584 
Q 1688 2584 1439 2293 
Q 1191 2003 1191 1497 
Q 1191 994 1439 701 
Q 1688 409 2113 409 
Q 2538 409 2786 701 
Q 3034 994 3034 1497 
Q 3034 2003 2786 2293 
Q 2538 2584 2113 2584 
z
M 3366 4563 
L 3366 3988 
Q 3128 4100 2886 4159 
Q 2644 4219 2406 4219 
Q 1781 4219 1451 3797 
Q 1122 3375 1075 2522 
Q 1259 2794 1537 2939 
Q 1816 3084 2150 3084 
Q 2853 3084 3261 2657 
Q 3669 2231 3669 1497 
Q 3669 778 3244 343 
Q 2819 -91 2113 -91 
Q 1303 -91 875 529 
Q 447 1150 447 2328 
Q 447 3434 972 4092 
Q 1497 4750 2381 4750 
Q 2619 4750 2861 4703 
Q 3103 4656 3366 4563 
z
" transform="scale(0.015625)"/>
       </defs>
       <use xlink:href="#DejaVuSans-33"/>
       <use xlink:href="#DejaVuSans-36" x="63.623047"/>
      </g>
     </g>
    </g>
    <g id="xtick_2">
     <g id="line2d_3">
      <path d="M 123.092308 448.56 
L 123.092308 60.48 
" clip-path="url(#p153835d648)" style="fill: none; stroke: #b0b0b0; stroke-width: 0.8; stroke-linecap: square"/>
     </g>
     <g id="line2d_4">
      <g>
       <use xlink:href="#mf9815a29f4" x="123.092308" y="448.56" style="stroke: #000000; stroke-width: 0.8"/>
      </g>
     </g>
     <g id="text_2">
      <!-- 38 -->
      <g transform="translate(116.729808 463.158437) scale(0.1 -0.1)">
       <defs>
        <path id="DejaVuSans-38" d="M 2034 2216 
Q 1584 2216 1326 1975 
Q 1069 1734 1069 1313 
Q 1069 891 1326 650 
Q 1584 409 2034 409 
Q 2484 409 2743 651 
Q 3003 894 3003 1313 
Q 3003 1734 2745 1975 
Q 2488 2216 2034 2216 
z
M 1403 2484 
Q 997 2584 770 2862 
Q 544 3141 544 3541 
Q 544 4100 942 4425 
Q 1341 4750 2034 4750 
Q 2731 4750 3128 4425 
Q 3525 4100 3525 3541 
Q 3525 3141 3298 2862 
Q 3072 2584 2669 2484 
Q 3125 2378 3379 2068 
Q 3634 1759 3634 1313 
Q 3634 634 3220 271 
Q 2806 -91 2034 -91 
Q 1263 -91 848 271 
Q 434 634 434 1313 
Q 434 1759 690 2068 
Q 947 2378 1403 2484 
z
M 1172 3481 
Q 1172 3119 1398 2916 
Q 1625 2713 2034 2713 
Q 2441 2713 2670 2916 
Q 2900 3119 2900 3481 
Q 2900 3844 2670 4047 
Q 2441 4250 2034 4250 
Q 1625 4250 1398 4047 
Q 1172 3844 1172 3481 
z
" transform="scale(0.015625)"/>
       </defs>
       <use xlink:href="#DejaVuSans-33"/>
       <use xlink:href="#DejaVuSans-38" x="63.623047"/>
      </g>
     </g>
    </g>
    <g id="xtick_3">
     <g id="line2d_5">
      <path d="M 183.184615 448.56 
L 183.184615 60.48 
" clip-path="url(#p153835d648)" style="fill: none; stroke: #b0b0b0; stroke-width: 0.8; stroke-linecap: square"/>
     </g>
     <g id="line2d_6">
      <g>
       <use xlink:href="#mf9815a29f4" x="183.184615" y="448.56" style="stroke: #000000; stroke-width: 0.8"/>
      </g>
     </g>
     <g id="text_3">
      <!-- 40 -->
      <g transform="translate(176.822115 463.158437) scale(0.1 -0.1)">
       <defs>
        <path id="DejaVuSans-34" d="M 2419 4116 
L 825 1625 
L 2419 1625 
L 2419 4116 
z
M 2253 4666 
L 3047 4666 
L 3047 1625 
L 3713 1625 
L 3713 1100 
L 3047 1100 
L 3047 0 
L 2419 0 
L 2419 1100 
L 313 1100 
L 313 1709 
L 2253 4666 
z
" transform="scale(0.015625)"/>
        <path id="DejaVuSans-30" d="M 2034 4250 
Q 1547 4250 1301 3770 
Q 1056 3291 1056 2328 
Q 1056 1369 1301 889 
Q 1547 409 2034 409 
Q 2525 409 2770 889 
Q 3016 1369 3016 2328 
Q 3016 3291 2770 3770 
Q 2525 4250 2034 4250 
z
M 2034 4750 
Q 2819 4750 3233 4129 
Q 3647 3509 3647 2328 
Q 3647 1150 3233 529 
Q 2819 -91 2034 -91 
Q 1250 -91 836 529 
Q 422 1150 422 2328 
Q 422 3509 836 4129 
Q 1250 4750 2034 4750 
z
" transform="scale(0.015625)"/>
       </defs>
       <use xlink:href="#DejaVuSans-34"/>
       <use xlink:href="#DejaVuSans-30" x="63.623047"/>
      </g>
     </g>
    </g>
    <g id="xtick_4">
     <g id="line2d_7">
      <path d="M 243.276923 448.56 
L 243.276923 60.48 
" clip-path="url(#p153835d648)" style="fill: none; stroke: #b0b0b0; stroke-width: 0.8; stroke-linecap: square"/>
     </g>
     <g id="line2d_8">
      <g>
       <use xlink:href="#mf9815a29f4" x="243.276923" y="448.56" style="stroke: #000000; stroke-width: 0.8"/>
      </g>
     </g>
     <g id="text_4">
      <!-- 42 -->
      <g transform="translate(236.914423 463.158437) scale(0.1 -0.1)">
       <defs>
        <path id="DejaVuSans-32" d="M 1228 531 
L 3431 531 
L 3431 0 
L 469 0 
L 469 531 
Q 828 903 1448 1529 
Q 2069 2156 2228 2338 
Q 2531 2678 2651 2914 
Q 2772 3150 2772 3378 
Q 2772 3750 2511 3984 
Q 2250 4219 1831 4219 
Q 1534 4219 1204 4116 
Q 875 4013 500 3803 
L 500 4441 
Q 881 4594 1212 4672 
Q 1544 4750 1819 4750 
Q 2544 4750 2975 4387 
Q 3406 4025 3406 3419 
Q 3406 3131 3298 2873 
Q 3191 2616 2906 2266 
Q 2828 2175 2409 1742 
Q 1991 1309 1228 531 
z
" transform="scale(0.015625)"/>
       </defs>
       <use xlink:href="#DejaVuSans-34"/>
       <use xlink:href="#DejaVuSans-32" x="63.623047"/>
      </g>
     </g>
    </g>
    <g id="xtick_5">
     <g id="line2d_9">
      <path d="M 303.369231 448.56 
L 303.369231 60.48 
" clip-path="url(#p153835d648)" style="fill: none; stroke: #b0b0b0; stroke-width: 0.8; stroke-linecap: square"/>
     </g>
     <g id="line2d_10">
      <g>
       <use xlink:href="#mf9815a29f4" x="303.369231" y="448.56" style="stroke: #000000; stroke-width: 0.8"/>
      </g>
     </g>
     <g id="text_5">
      <!-- 44 -->
      <g transform="translate(297.006731 463.158437) scale(0.1 -0.1)">
       <use xlink:href="#DejaVuSans-34"/>
       <use xlink:href="#DejaVuSans-34" x="63.623047"/>
      </g>
     </g>
    </g>
    <g id="xtick_6">
     <g id="line2d_11">
      <path d="M 363.461538 448.56 
L 363.461538 60.48 
" clip-path="url(#p153835d648)" style="fill: none; stroke: #b0b0b0; stroke-width: 0.8; stroke-linecap: square"/>
     </g>
     <g id="line2d_12">
      <g>
       <use xlink:href="#mf9815a29f4" x="363.461538" y="448.56" style="stroke: #000000; stroke-width: 0.8"/>
      </g>
     </g>
     <g id="text_6">
      <!-- 46 -->
      <g transform="translate(357.099038 463.158437) scale(0.1 -0.1)">
       <use xlink:href="#DejaVuSans-34"/>
       <use xlink:href="#DejaVuSans-36" x="63.623047"/>
      </g>
     </g>
    </g>
    <g id="xtick_7">
     <g id="line2d_13">
      <path d="M 423.553846 448.56 
L 423.553846 60.48 
" clip-path="url(#p153835d648)" style="fill: none; stroke: #b0b0b0; stroke-width: 0.8; stroke-linecap: square"/>
     </g>
     <g id="line2d_14">
      <g>
       <use xlink:href="#mf9815a29f4" x="423.553846" y="448.56" style="stroke: #000000; stroke-width: 0.8"/>
      </g>
     </g>
     <g id="text_7">
      <!-- 48 -->
      <g transform="translate(417.191346 463.158437) scale(0.1 -0.1)">
       <use xlink:href="#DejaVuSans-34"/>
       <use xlink:href="#DejaVuSans-38" x="63.623047"/>
      </g>
     </g>
    </g>
    <g id="text_8">
     <!-- Temperature ($^{\circ} C$) -->
     <g transform="translate(192.3 480.638125) scale(0.15 -0.15)">
      <defs>
       <path id="DejaVuSans-54" d="M -19 4666 
L 3928 4666 
L 3928 4134 
L 2272 4134 
L 2272 0 
L 1638 0 
L 1638 4134 
L -19 4134 
L -19 4666 
z
" transform="scale(0.015625)"/>
       <path id="DejaVuSans-65" d="M 3597 1894 
L 3597 1613 
L 953 1613 
Q 991 1019 1311 708 
Q 1631 397 2203 397 
Q 2534 397 2845 478 
Q 3156 559 3463 722 
L 3463 178 
Q 3153 47 2828 -22 
Q 2503 -91 2169 -91 
Q 1331 -91 842 396 
Q 353 884 353 1716 
Q 353 2575 817 3079 
Q 1281 3584 2069 3584 
Q 2775 3584 3186 3129 
Q 3597 2675 3597 1894 
z
M 3022 2063 
Q 3016 2534 2758 2815 
Q 2500 3097 2075 3097 
Q 1594 3097 1305 2825 
Q 1016 2553 972 2059 
L 3022 2063 
z
" transform="scale(0.015625)"/>
       <path id="DejaVuSans-6d" d="M 3328 2828 
Q 3544 3216 3844 3400 
Q 4144 3584 4550 3584 
Q 5097 3584 5394 3201 
Q 5691 2819 5691 2113 
L 5691 0 
L 5113 0 
L 5113 2094 
Q 5113 2597 4934 2840 
Q 4756 3084 4391 3084 
Q 3944 3084 3684 2787 
Q 3425 2491 3425 1978 
L 3425 0 
L 2847 0 
L 2847 2094 
Q 2847 2600 2669 2842 
Q 2491 3084 2119 3084 
Q 1678 3084 1418 2786 
Q 1159 2488 1159 1978 
L 1159 0 
L 581 0 
L 581 3500 
L 1159 3500 
L 1159 2956 
Q 1356 3278 1631 3431 
Q 1906 3584 2284 3584 
Q 2666 3584 2933 3390 
Q 3200 3197 3328 2828 
z
" transform="scale(0.015625)"/>
       <path id="DejaVuSans-70" d="M 1159 525 
L 1159 -1331 
L 581 -1331 
L 581 3500 
L 1159 3500 
L 1159 2969 
Q 1341 3281 1617 3432 
Q 1894 3584 2278 3584 
Q 2916 3584 3314 3078 
Q 3713 2572 3713 1747 
Q 3713 922 3314 415 
Q 2916 -91 2278 -91 
Q 1894 -91 1617 61 
Q 1341 213 1159 525 
z
M 3116 1747 
Q 3116 2381 2855 2742 
Q 2594 3103 2138 3103 
Q 1681 3103 1420 2742 
Q 1159 2381 1159 1747 
Q 1159 1113 1420 752 
Q 1681 391 2138 391 
Q 2594 391 2855 752 
Q 3116 1113 3116 1747 
z
" transform="scale(0.015625)"/>
       <path id="DejaVuSans-72" d="M 2631 2963 
Q 2534 3019 2420 3045 
Q 2306 3072 2169 3072 
Q 1681 3072 1420 2755 
Q 1159 2438 1159 1844 
L 1159 0 
L 581 0 
L 581 3500 
L 1159 3500 
L 1159 2956 
Q 1341 3275 1631 3429 
Q 1922 3584 2338 3584 
Q 2397 3584 2469 3576 
Q 2541 3569 2628 3553 
L 2631 2963 
z
" transform="scale(0.015625)"/>
       <path id="DejaVuSans-61" d="M 2194 1759 
Q 1497 1759 1228 1600 
Q 959 1441 959 1056 
Q 959 750 1161 570 
Q 1363 391 1709 391 
Q 2188 391 2477 730 
Q 2766 1069 2766 1631 
L 2766 1759 
L 2194 1759 
z
M 3341 1997 
L 3341 0 
L 2766 0 
L 2766 531 
Q 2569 213 2275 61 
Q 1981 -91 1556 -91 
Q 1019 -91 701 211 
Q 384 513 384 1019 
Q 384 1609 779 1909 
Q 1175 2209 1959 2209 
L 2766 2209 
L 2766 2266 
Q 2766 2663 2505 2880 
Q 2244 3097 1772 3097 
Q 1472 3097 1187 3025 
Q 903 2953 641 2809 
L 641 3341 
Q 956 3463 1253 3523 
Q 1550 3584 1831 3584 
Q 2591 3584 2966 3190 
Q 3341 2797 3341 1997 
z
" transform="scale(0.015625)"/>
       <path id="DejaVuSans-74" d="M 1172 4494 
L 1172 3500 
L 2356 3500 
L 2356 3053 
L 1172 3053 
L 1172 1153 
Q 1172 725 1289 603 
Q 1406 481 1766 481 
L 2356 481 
L 2356 0 
L 1766 0 
Q 1100 0 847 248 
Q 594 497 594 1153 
L 594 3053 
L 172 3053 
L 172 3500 
L 594 3500 
L 594 4494 
L 1172 4494 
z
" transform="scale(0.015625)"/>
       <path id="DejaVuSans-75" d="M 544 1381 
L 544 3500 
L 1119 3500 
L 1119 1403 
Q 1119 906 1312 657 
Q 1506 409 1894 409 
Q 2359 409 2629 706 
Q 2900 1003 2900 1516 
L 2900 3500 
L 3475 3500 
L 3475 0 
L 2900 0 
L 2900 538 
Q 2691 219 2414 64 
Q 2138 -91 1772 -91 
Q 1169 -91 856 284 
Q 544 659 544 1381 
z
M 1991 3584 
L 1991 3584 
z
" transform="scale(0.015625)"/>
       <path id="DejaVuSans-20" transform="scale(0.015625)"/>
       <path id="DejaVuSans-28" d="M 1984 4856 
Q 1566 4138 1362 3434 
Q 1159 2731 1159 2009 
Q 1159 1288 1364 580 
Q 1569 -128 1984 -844 
L 1484 -844 
Q 1016 -109 783 600 
Q 550 1309 550 2009 
Q 550 2706 781 3412 
Q 1013 4119 1484 4856 
L 1984 4856 
z
" transform="scale(0.015625)"/>
       <path id="DejaVuSans-2218" d="M 2000 2619 
Q 1750 2619 1578 2445 
Q 1406 2272 1406 2022 
Q 1406 1775 1578 1605 
Q 1750 1435 2000 1435 
Q 2250 1435 2422 1605 
Q 2594 1775 2594 2022 
Q 2594 2269 2420 2444 
Q 2247 2619 2000 2619 
z
M 2000 3022 
Q 2200 3022 2384 2945 
Q 2569 2869 2703 2725 
Q 2847 2585 2919 2406 
Q 2991 2228 2991 2022 
Q 2991 1610 2702 1324 
Q 2413 1038 1994 1038 
Q 1572 1038 1290 1319 
Q 1009 1600 1009 2022 
Q 1009 2441 1296 2731 
Q 1584 3022 2000 3022 
z
" transform="scale(0.015625)"/>
       <path id="DejaVuSans-Oblique-43" d="M 4447 4306 
L 4319 3641 
Q 4019 3944 3683 4091 
Q 3347 4238 2956 4238 
Q 2422 4238 2017 3981 
Q 1613 3725 1319 3200 
Q 1131 2863 1032 2486 
Q 934 2109 934 1728 
Q 934 1091 1264 756 
Q 1594 422 2222 422 
Q 2656 422 3056 561 
Q 3456 700 3834 978 
L 3688 231 
Q 3316 72 2936 -9 
Q 2556 -91 2175 -91 
Q 1278 -91 773 396 
Q 269 884 269 1753 
Q 269 2309 461 2846 
Q 653 3384 1013 3828 
Q 1394 4300 1883 4525 
Q 2372 4750 3022 4750 
Q 3422 4750 3780 4639 
Q 4138 4528 4447 4306 
z
" transform="scale(0.015625)"/>
       <path id="DejaVuSans-29" d="M 513 4856 
L 1013 4856 
Q 1481 4119 1714 3412 
Q 1947 2706 1947 2009 
Q 1947 1309 1714 600 
Q 1481 -109 1013 -844 
L 513 -844 
Q 928 -128 1133 580 
Q 1338 1288 1338 2009 
Q 1338 2731 1133 3434 
Q 928 4138 513 4856 
z
" transform="scale(0.015625)"/>
      </defs>
      <use xlink:href="#DejaVuSans-54" transform="translate(0 0.125)"/>
      <use xlink:href="#DejaVuSans-65" transform="translate(61.083984 0.125)"/>
      <use xlink:href="#DejaVuSans-6d" transform="translate(122.607422 0.125)"/>
      <use xlink:href="#DejaVuSans-70" transform="translate(220.019531 0.125)"/>
      <use xlink:href="#DejaVuSans-65" transform="translate(283.496094 0.125)"/>
      <use xlink:href="#DejaVuSans-72" transform="translate(345.019531 0.125)"/>
      <use xlink:href="#DejaVuSans-61" transform="translate(386.132812 0.125)"/>
      <use xlink:href="#DejaVuSans-74" transform="translate(447.412109 0.125)"/>
      <use xlink:href="#DejaVuSans-75" transform="translate(486.621094 0.125)"/>
      <use xlink:href="#DejaVuSans-72" transform="translate(550 0.125)"/>
      <use xlink:href="#DejaVuSans-65" transform="translate(591.113281 0.125)"/>
      <use xlink:href="#DejaVuSans-20" transform="translate(652.636719 0.125)"/>
      <use xlink:href="#DejaVuSans-28" transform="translate(684.423828 0.125)"/>
      <use xlink:href="#DejaVuSans-2218" transform="translate(724.394531 38.40625) scale(0.7)"/>
      <use xlink:href="#DejaVuSans-Oblique-43" transform="translate(770.947266 0.125)"/>
      <use xlink:href="#DejaVuSans-29" transform="translate(840.771484 0.125)"/>
     </g>
    </g>
   </g>
   <g id="matplotlib.axis_2">
    <g id="ytick_1">
     <g id="line2d_15">
      <path d="M 63 433.633846 
L 453.6 433.633846 
" clip-path="url(#p153835d648)" style="fill: none; stroke: #b0b0b0; stroke-width: 0.8; stroke-linecap: square"/>
     </g>
     <g id="line2d_16">
      <defs>
       <path id="md8d3fe3e8f" d="M 0 0 
L -3.5 0 
" style="stroke: #000000; stroke-width: 0.8"/>
      </defs>
      <g>
       <use xlink:href="#md8d3fe3e8f" x="63" y="433.633846" style="stroke: #000000; stroke-width: 0.8"/>
      </g>
     </g>
     <g id="text_9">
      <!-- 20 -->
      <g transform="translate(43.275 437.433065) scale(0.1 -0.1)">
       <use xlink:href="#DejaVuSans-32"/>
       <use xlink:href="#DejaVuSans-30" x="63.623047"/>
      </g>
     </g>
    </g>
    <g id="ytick_2">
     <g id="line2d_17">
      <path d="M 63 359.003077 
L 453.6 359.003077 
" clip-path="url(#p153835d648)" style="fill: none; stroke: #b0b0b0; stroke-width: 0.8; stroke-linecap: square"/>
     </g>
     <g id="line2d_18">
      <g>
       <use xlink:href="#md8d3fe3e8f" x="63" y="359.003077" style="stroke: #000000; stroke-width: 0.8"/>
      </g>
     </g>
     <g id="text_10">
      <!-- 30 -->
      <g transform="translate(43.275 362.802296) scale(0.1 -0.1)">
       <use xlink:href="#DejaVuSans-33"/>
       <use xlink:href="#DejaVuSans-30" x="63.623047"/>
      </g>
     </g>
    </g>
    <g id="ytick_3">
     <g id="line2d_19">
      <path d="M 63 284.372308 
L 453.6 284.372308 
" clip-path="url(#p153835d648)" style="fill: none; stroke: #b0b0b0; stroke-width: 0.8; stroke-linecap: square"/>
     </g>
     <g id="line2d_20">
      <g>
       <use xlink:href="#md8d3fe3e8f" x="63" y="284.372308" style="stroke: #000000; stroke-width: 0.8"/>
      </g>
     </g>
     <g id="text_11">
      <!-- 40 -->
      <g transform="translate(43.275 288.171526) scale(0.1 -0.1)">
       <use xlink:href="#DejaVuSans-34"/>
       <use xlink:href="#DejaVuSans-30" x="63.623047"/>
      </g>
     </g>
    </g>
    <g id="ytick_4">
     <g id="line2d_21">
      <path d="M 63 209.741538 
L 453.6 209.741538 
" clip-path="url(#p153835d648)" style="fill: none; stroke: #b0b0b0; stroke-width: 0.8; stroke-linecap: square"/>
     </g>
     <g id="line2d_22">
      <g>
       <use xlink:href="#md8d3fe3e8f" x="63" y="209.741538" style="stroke: #000000; stroke-width: 0.8"/>
      </g>
     </g>
     <g id="text_12">
      <!-- 50 -->
      <g transform="translate(43.275 213.540757) scale(0.1 -0.1)">
       <defs>
        <path id="DejaVuSans-35" d="M 691 4666 
L 3169 4666 
L 3169 4134 
L 1269 4134 
L 1269 2991 
Q 1406 3038 1543 3061 
Q 1681 3084 1819 3084 
Q 2600 3084 3056 2656 
Q 3513 2228 3513 1497 
Q 3513 744 3044 326 
Q 2575 -91 1722 -91 
Q 1428 -91 1123 -41 
Q 819 9 494 109 
L 494 744 
Q 775 591 1075 516 
Q 1375 441 1709 441 
Q 2250 441 2565 725 
Q 2881 1009 2881 1497 
Q 2881 1984 2565 2268 
Q 2250 2553 1709 2553 
Q 1456 2553 1204 2497 
Q 953 2441 691 2322 
L 691 4666 
z
" transform="scale(0.015625)"/>
       </defs>
       <use xlink:href="#DejaVuSans-35"/>
       <use xlink:href="#DejaVuSans-30" x="63.623047"/>
      </g>
     </g>
    </g>
    <g id="ytick_5">
     <g id="line2d_23">
      <path d="M 63 135.110769 
L 453.6 135.110769 
" clip-path="url(#p153835d648)" style="fill: none; stroke: #b0b0b0; stroke-width: 0.8; stroke-linecap: square"/>
     </g>
     <g id="line2d_24">
      <g>
       <use xlink:href="#md8d3fe3e8f" x="63" y="135.110769" style="stroke: #000000; stroke-width: 0.8"/>
      </g>
     </g>
     <g id="text_13">
      <!-- 60 -->
      <g transform="translate(43.275 138.909988) scale(0.1 -0.1)">
       <use xlink:href="#DejaVuSans-36"/>
       <use xlink:href="#DejaVuSans-30" x="63.623047"/>
      </g>
     </g>
    </g>
    <g id="ytick_6">
     <g id="line2d_25">
      <path d="M 63 60.48 
L 453.6 60.48 
" clip-path="url(#p153835d648)" style="fill: none; stroke: #b0b0b0; stroke-width: 0.8; stroke-linecap: square"/>
     </g>
     <g id="line2d_26">
      <g>
       <use xlink:href="#md8d3fe3e8f" x="63" y="60.48" style="stroke: #000000; stroke-width: 0.8"/>
      </g>
     </g>
     <g id="text_14">
      <!-- 70 -->
      <g transform="translate(43.275 64.279219) scale(0.1 -0.1)">
       <defs>
        <path id="DejaVuSans-37" d="M 525 4666 
L 3525 4666 
L 3525 4397 
L 1831 0 
L 1172 0 
L 2766 4134 
L 525 4134 
L 525 4666 
z
" transform="scale(0.015625)"/>
       </defs>
       <use xlink:href="#DejaVuSans-37"/>
       <use xlink:href="#DejaVuSans-30" x="63.623047"/>
      </g>
     </g>
    </g>
    <g id="text_15">
     <!-- Relative Humidity (%) -->
     <g transform="translate(36.155469 336.518438) rotate(-90) scale(0.15 -0.15)">
      <defs>
       <path id="DejaVuSans-52" d="M 2841 2188 
Q 3044 2119 3236 1894 
Q 3428 1669 3622 1275 
L 4263 0 
L 3584 0 
L 2988 1197 
Q 2756 1666 2539 1819 
Q 2322 1972 1947 1972 
L 1259 1972 
L 1259 0 
L 628 0 
L 628 4666 
L 2053 4666 
Q 2853 4666 3247 4331 
Q 3641 3997 3641 3322 
Q 3641 2881 3436 2590 
Q 3231 2300 2841 2188 
z
M 1259 4147 
L 1259 2491 
L 2053 2491 
Q 2509 2491 2742 2702 
Q 2975 2913 2975 3322 
Q 2975 3731 2742 3939 
Q 2509 4147 2053 4147 
L 1259 4147 
z
" transform="scale(0.015625)"/>
       <path id="DejaVuSans-6c" d="M 603 4863 
L 1178 4863 
L 1178 0 
L 603 0 
L 603 4863 
z
" transform="scale(0.015625)"/>
       <path id="DejaVuSans-69" d="M 603 3500 
L 1178 3500 
L 1178 0 
L 603 0 
L 603 3500 
z
M 603 4863 
L 1178 4863 
L 1178 4134 
L 603 4134 
L 603 4863 
z
" transform="scale(0.015625)"/>
       <path id="DejaVuSans-76" d="M 191 3500 
L 800 3500 
L 1894 563 
L 2988 3500 
L 3597 3500 
L 2284 0 
L 1503 0 
L 191 3500 
z
" transform="scale(0.015625)"/>
       <path id="DejaVuSans-48" d="M 628 4666 
L 1259 4666 
L 1259 2753 
L 3553 2753 
L 3553 4666 
L 4184 4666 
L 4184 0 
L 3553 0 
L 3553 2222 
L 1259 2222 
L 1259 0 
L 628 0 
L 628 4666 
z
" transform="scale(0.015625)"/>
       <path id="DejaVuSans-64" d="M 2906 2969 
L 2906 4863 
L 3481 4863 
L 3481 0 
L 2906 0 
L 2906 525 
Q 2725 213 2448 61 
Q 2172 -91 1784 -91 
Q 1150 -91 751 415 
Q 353 922 353 1747 
Q 353 2572 751 3078 
Q 1150 3584 1784 3584 
Q 2172 3584 2448 3432 
Q 2725 3281 2906 2969 
z
M 947 1747 
Q 947 1113 1208 752 
Q 1469 391 1925 391 
Q 2381 391 2643 752 
Q 2906 1113 2906 1747 
Q 2906 2381 2643 2742 
Q 2381 3103 1925 3103 
Q 1469 3103 1208 2742 
Q 947 2381 947 1747 
z
" transform="scale(0.015625)"/>
       <path id="DejaVuSans-79" d="M 2059 -325 
Q 1816 -950 1584 -1140 
Q 1353 -1331 966 -1331 
L 506 -1331 
L 506 -850 
L 844 -850 
Q 1081 -850 1212 -737 
Q 1344 -625 1503 -206 
L 1606 56 
L 191 3500 
L 800 3500 
L 1894 763 
L 2988 3500 
L 3597 3500 
L 2059 -325 
z
" transform="scale(0.015625)"/>
       <path id="DejaVuSans-25" d="M 4653 2053 
Q 4381 2053 4226 1822 
Q 4072 1591 4072 1178 
Q 4072 772 4226 539 
Q 4381 306 4653 306 
Q 4919 306 5073 539 
Q 5228 772 5228 1178 
Q 5228 1588 5073 1820 
Q 4919 2053 4653 2053 
z
M 4653 2450 
Q 5147 2450 5437 2106 
Q 5728 1763 5728 1178 
Q 5728 594 5436 251 
Q 5144 -91 4653 -91 
Q 4153 -91 3862 251 
Q 3572 594 3572 1178 
Q 3572 1766 3864 2108 
Q 4156 2450 4653 2450 
z
M 1428 4353 
Q 1159 4353 1004 4120 
Q 850 3888 850 3481 
Q 850 3069 1003 2837 
Q 1156 2606 1428 2606 
Q 1700 2606 1854 2837 
Q 2009 3069 2009 3481 
Q 2009 3884 1853 4118 
Q 1697 4353 1428 4353 
z
M 4250 4750 
L 4750 4750 
L 1831 -91 
L 1331 -91 
L 4250 4750 
z
M 1428 4750 
Q 1922 4750 2215 4408 
Q 2509 4066 2509 3481 
Q 2509 2891 2217 2550 
Q 1925 2209 1428 2209 
Q 931 2209 642 2551 
Q 353 2894 353 3481 
Q 353 4063 643 4406 
Q 934 4750 1428 4750 
z
" transform="scale(0.015625)"/>
      </defs>
      <use xlink:href="#DejaVuSans-52"/>
      <use xlink:href="#DejaVuSans-65" x="64.982422"/>
      <use xlink:href="#DejaVuSans-6c" x="126.505859"/>
      <use xlink:href="#DejaVuSans-61" x="154.289062"/>
      <use xlink:href="#DejaVuSans-74" x="215.568359"/>
      <use xlink:href="#DejaVuSans-69" x="254.777344"/>
      <use xlink:href="#DejaVuSans-76" x="282.560547"/>
      <use xlink:href="#DejaVuSans-65" x="341.740234"/>
      <use xlink:href="#DejaVuSans-20" x="403.263672"/>
      <use xlink:href="#DejaVuSans-48" x="435.050781"/>
      <use xlink:href="#DejaVuSans-75" x="510.246094"/>
      <use xlink:href="#DejaVuSans-6d" x="573.625"/>
      <use xlink:href="#DejaVuSans-69" x="671.037109"/>
      <use xlink:href="#DejaVuSans-64" x="698.820312"/>
      <use xlink:href="#DejaVuSans-69" x="762.296875"/>
      <use xlink:href="#DejaVuSans-74" x="790.080078"/>
      <use xlink:href="#DejaVuSans-79" x="829.289062"/>
      <use xlink:href="#DejaVuSans-20" x="888.46875"/>
      <use xlink:href="#DejaVuSans-28" x="920.255859"/>
      <use xlink:href="#DejaVuSans-25" x="959.269531"/>
      <use xlink:href="#DejaVuSans-29" x="1054.289062"/>
     </g>
    </g>
   </g>
   <g id="line2d_27">
    <path d="M 63 56.36254 
L 78.624 77.299652 
L 94.248 97.861071 
L 109.571538 117.662153 
L 124.895077 137.101854 
L 140.218615 156.180172 
L 155.241692 174.533582 
L 170.264769 192.539644 
L 185.287846 210.198356 
L 200.310923 227.509719 
L 215.033538 244.137857 
L 229.756154 260.4324 
L 244.478769 276.39335 
L 258.900923 291.705114 
L 273.323077 306.696761 
L 287.745231 321.368291 
L 302.167385 335.719704 
L 316.289077 349.461947 
L 330.410769 362.897271 
L 344.532462 376.025679 
L 358.654154 388.847168 
L 372.475385 401.098668 
L 386.296615 413.056171 
L 400.117846 424.719678 
L 413.939077 436.089189 
L 427.459846 446.927057 
L 440.980615 457.483573 
L 453.299538 466.856781 
L 453.299538 466.856781 
" clip-path="url(#p153835d648)" style="fill: none; stroke-dasharray: 11.1,4.8; stroke-dashoffset: 0; stroke: #ff0000; stroke-opacity: 0.5; stroke-width: 3"/>
   </g>
   <g id="patch_3">
    <path d="M 63 448.56 
L 63 60.48 
" style="fill: none; stroke: #000000; stroke-width: 0.8; stroke-linejoin: miter; stroke-linecap: square"/>
   </g>
   <g id="patch_4">
    <path d="M 453.6 448.56 
L 453.6 60.48 
" style="fill: none; stroke: #000000; stroke-width: 0.8; stroke-linejoin: miter; stroke-linecap: square"/>
   </g>
   <g id="patch_5">
    <path d="M 63 448.56 
L 453.6 448.56 
" style="fill: none; stroke: #000000; stroke-width: 0.8; stroke-linejoin: miter; stroke-linecap: square"/>
   </g>
   <g id="patch_6">
    <path d="M 63 60.48 
L 453.6 60.48 
" style="fill: none; stroke: #000000; stroke-width: 0.8; stroke-linejoin: miter; stroke-linecap: square"/>
   </g>
  </g>
 </g>
 <defs>
  <clipPath id="p153835d648">
   <rect x="63" y="60.48" width="390.6" height="388.08"/>
  </clipPath>
 </defs>
</svg>
